<?xml version="1.0" encoding="utf-8"?>
<!-- Generator: Adobe Illustrator 16.0.0, SVG Export Plug-In . SVG Version: 6.00 Build 0)  -->
<!DOCTYPE svg PUBLIC "-//W3C//DTD SVG 1.1//EN" "http://www.w3.org/Graphics/SVG/1.1/DTD/svg11.dtd">
<svg version="1.1" id="Layer_1" xmlns="http://www.w3.org/2000/svg" xmlns:xlink="http://www.w3.org/1999/xlink" x="0px" y="0px"
	 width="110.606px" height="97.831px" viewBox="0 0 110.606 97.831" enable-background="new 0 0 110.606 97.831"
	 xml:space="preserve">
<g id="g8732" transform="translate(1082.9058,803.542)" opacity="0.3">
	<path id="path8734" fill="#555555" d="M-1023.156-788.821h2.822c1.604,0,2.76,0.079,3.485,0.217
		c0.738,0.153,1.078,0.461,1.078,0.909c0,0.031,0,0.078-0.015,0.109c-0.048,0.401-0.386,0.661-1.019,0.8
		c-0.677,0.17-1.694,0.247-3.066,0.247h-3.286v-1.51V-788.821z M-1023.156-792.691h2.298c1.402,0,2.407,0.078,2.992,0.217
		c0.616,0.153,0.896,0.431,0.896,0.879c0,0.43-0.309,0.708-0.972,0.847c-0.232,0.047-0.526,0.078-0.866,0.107h-0.028
		c-0.556,0.048-1.235,0.08-2.036,0.08h-2.283v-0.17V-792.691z M-1024.976-783.408h2.329v-1.266h2.56v1.266h2.359v-1.297
		c2.498-0.03,4.303-0.337,5.364-0.877c0.542-0.279,0.94-0.585,1.188-0.909c0.248-0.295,0.354-0.601,0.354-0.926
		c0-0.615-0.4-1.156-1.171-1.572c-0.801-0.415-1.851-0.678-3.192-0.817c0.385-0.076,0.617-0.123,0.771-0.17
		c0.031,0,0.062-0.016,0.109-0.031h0.014c0.157-0.029,0.371-0.107,0.633-0.216c1.095-0.368,1.636-0.94,1.636-1.725
		c0-0.619-0.464-1.205-1.435-1.696c-0.539-0.293-1.325-0.493-2.376-0.665c-0.568-0.076-1.218-0.137-1.895-0.199v-0.757v-0.553
		h-2.359v0.37v0.909h-2.56v-0.94v-0.338h-2.329v0.446v0.833h-5.549h-1.356v0.355v1.494h2.157c0.724,0,1.774,0.078,1.774,0.803v1.572
		v2.684v0.292c0,0.724-1.05,0.8-1.774,0.8h-2.157v1.866h6.905V-783.408z"/>
</g>
<g id="g8736" transform="translate(1059.2661,780.1318)" opacity="0.3">
	<path id="path8738" fill="#555555" d="M-1035.965-729.314h2.821c1.603,0,2.759,0.076,3.484,0.2c0.74,0.152,1.08,0.461,1.08,0.91
		c0,0.029,0,0.076-0.016,0.107c-0.046,0.402-0.386,0.664-1.018,0.803c-0.679,0.168-1.694,0.246-3.068,0.246h-3.284v-1.512V-729.314z
		 M-1035.965-733.185h2.297c1.404,0,2.406,0.078,2.991,0.202c0.617,0.154,0.894,0.43,0.894,0.877c0,0.434-0.309,0.709-0.971,0.848
		c-0.216,0.049-0.494,0.094-0.802,0.123h-0.061c-0.556,0.048-1.25,0.062-2.066,0.062h-2.281v-0.169V-733.185z M-1037.785-723.919
		h2.329v-1.266h2.575v1.266h2.345v-1.279c2.496-0.045,4.3-0.355,5.364-0.895c0.54-0.279,0.94-0.586,1.189-0.91
		c0.244-0.279,0.353-0.584,0.353-0.91c0-0.631-0.401-1.156-1.172-1.587c-0.802-0.418-1.85-0.68-3.192-0.803
		c0.385-0.075,0.632-0.136,0.771-0.169c0.031,0,0.077-0.016,0.124-0.031h0.015c0.154-0.046,0.371-0.123,0.632-0.216
		c1.08-0.385,1.619-0.954,1.619-1.725c0-0.632-0.462-1.22-1.434-1.714c-0.54-0.292-1.326-0.491-2.374-0.662
		c-0.571-0.076-1.219-0.139-1.895-0.199v-0.755v-0.54h-2.345v0.353v0.91h-2.575v-0.941v-0.321h-2.329v0.43v0.832h-5.551h-1.356
		v0.354v1.512h2.159c0.724,0,1.773,0.078,1.773,0.786v1.574v2.68v0.312c0,0.707-1.049,0.785-1.773,0.785h-2.159v1.863h6.907
		V-723.919z"/>
</g>
<g id="g8740" transform="translate(1103.5737,753.5596)" opacity="0.3">
	<path id="path8742" fill="#555555" d="M-1011.957-661.772h-0.046c-1.896,0.615-3.933,0.939-6.014,0.939
		c-2.281,0-4.471-0.387-6.491-1.096c-3.053-1.062-5.782-2.836-7.94-5.119c-1.526-1.586-2.792-3.438-3.717-5.455
		c-0.646-1.422-1.14-2.93-1.433-4.52c-0.17-0.863-0.279-1.744-0.324-2.639c-0.017-0.369-0.03-0.738-0.03-1.107
		c0-0.865,0.046-1.713,0.169-2.559c0.047-0.373,0.108-0.74,0.17-1.096c0.17-0.908,0.4-1.803,0.709-2.67
		c0.17-0.553,0.386-1.107,0.617-1.631c0.555-1.266,1.233-2.469,2.035-3.596c0.154-0.197,0.309-0.414,0.463-0.613
		c0.585-0.771,1.233-1.498,1.928-2.158c0.339-0.326,0.693-0.648,1.048-0.943h0.016c0.894-0.771,1.866-1.447,2.897-2.051
		c0.679-0.369,1.372-0.725,2.098-1.033l0.34-0.139c0.509-0.215,1.032-0.398,1.571-0.555c1.806-0.568,3.717-0.877,5.705-0.895h0.17
		c10.131,0,18.519,7.604,19.768,17.379c0.107,0.846,0.154,1.693,0.154,2.559C-998.095-671.874-1003.925-664.331-1011.957-661.772
		 M-1042.654-701.384c-3.594,0-6.939-0.463-9.791-1.282h-0.017c-0.754-0.197-1.479-0.445-2.158-0.693v-0.184
		c0-1.017-0.155-2.004-0.462-2.961c-0.231-0.754-0.571-1.494-1.002-2.203c1.079,0.51,2.297,0.956,3.622,1.326h0.017
		c2.852,0.815,6.197,1.279,9.791,1.279c3.592,0,6.938-0.464,9.788-1.279h0.017c1.358-0.37,2.591-0.832,3.687-1.356
		c1.449-0.68,2.651-1.483,3.53-2.36c0.415-0.401,0.771-0.833,1.048-1.28c0.433,0.694,0.679,1.418,0.693,2.174
		c-0.276,0.062-0.539,0.139-0.801,0.213c-1.388,0.385-2.714,0.881-3.995,1.48c-0.954,0.463-1.88,0.971-2.774,1.542
		c-1.604,1.019-3.098,2.238-4.426,3.593c-0.509,0.523-1,1.065-1.479,1.634C-1039.047-701.509-1040.82-701.384-1042.654-701.384
		 M-1040.62-696.62c-0.385,0.818-0.727,1.637-1.019,2.5c-0.338,0.031-0.678,0.031-1.016,0.031c-3.594,0-6.939-0.465-9.791-1.281
		h-0.017c-0.754-0.203-1.479-0.447-2.158-0.693v-4.719c0.678,0.246,1.403,0.494,2.158,0.693h0.017
		c2.852,0.818,6.197,1.279,9.791,1.279c1.124,0,2.235-0.047,3.314-0.137C-1039.805-698.19-1040.234-697.421-1040.62-696.62
		 M-1054.62-688.647v-4.719c0.678,0.248,1.403,0.492,2.158,0.695h0.017c2.852,0.814,6.197,1.279,9.791,1.279h0.231
		c-0.155,0.691-0.295,1.418-0.386,2.145c-0.124,0.846-0.186,1.691-0.217,2.559c-3.454-0.018-6.676-0.48-9.42-1.266h-0.017
		C-1053.217-688.153-1053.942-688.401-1054.62-688.647 M-1043.04-684.114v3.346c0,0.461,0.015,0.924,0.03,1.371
		c-4.41-0.029-8.449-0.756-11.61-1.957v-4.719C-1051.459-684.886-1047.452-684.147-1043.04-684.114 M-1042.654-671.964
		c-4.549,0-8.714-0.742-11.966-1.975v-4.732c3.238,1.234,7.386,1.973,11.919,1.973c0.261,1.635,0.678,3.207,1.249,4.701
		C-1041.854-671.964-1042.255-671.964-1042.654-671.964 M-1057.966-712.438h-0.017c-0.63-0.418-1.17-0.848-1.632-1.296
		c-0.771-0.741-1.311-1.526-1.589-2.358c-0.154-0.434-0.231-0.88-0.231-1.343c0-0.816,0.247-1.604,0.725-2.358
		c0.277,0.464,0.647,0.911,1.096,1.341c0.909,0.88,2.126,1.68,3.592,2.361c1.063,0.494,2.251,0.941,3.561,1.293h0.017
		c2.852,0.819,6.197,1.279,9.791,1.279c3.592,0,6.938-0.46,9.788-1.279h0.017c1.311-0.353,2.499-0.8,3.562-1.293
		c1.466-0.681,2.684-1.481,3.594-2.361c0.447-0.43,0.817-0.877,1.109-1.341c0.463,0.755,0.71,1.542,0.71,2.358
		c0,0.463-0.077,0.909-0.231,1.343c-0.279,0.832-0.816,1.618-1.588,2.358c-0.463,0.448-1.004,0.878-1.635,1.296h-0.015
		c-1.466,0.955-3.332,1.755-5.506,2.358h-0.017c-2.85,0.815-6.196,1.279-9.788,1.279c-3.594,0-6.939-0.464-9.791-1.279h-0.017
		C-1054.636-710.683-1056.501-711.482-1057.966-712.438 M-1060.386-702.877c-0.031,0.244-0.092,0.489-0.186,0.722
		c-0.123,0.371-0.292,0.711-0.524,1.047v0.018c-0.077,0.141-0.17,0.264-0.278,0.402c-0.231,0.309-0.493,0.6-0.801,0.895
		c-0.493,0.475-1.08,0.908-1.743,1.34h-0.014c-0.911,0.568-1.99,1.111-3.192,1.557c-0.787,0.309-1.634,0.572-2.528,0.801
		c-2.775,0.756-6,1.189-9.453,1.189c-3.453,0-6.675-0.434-9.451-1.189c-2.251-0.586-4.194-1.402-5.72-2.357
		c-0.678-0.418-1.264-0.865-1.757-1.34c-0.771-0.727-1.311-1.527-1.604-2.361c-0.17-0.446-0.247-0.909-0.247-1.388
		c0-4.779,8.403-8.649,18.779-8.649c4.564,0,8.728,0.757,11.981,1.99c2.729,1.032,4.795,2.419,5.891,4.007
		c0.246,0.324,0.431,0.664,0.57,1.019c0.061,0.124,0.092,0.247,0.139,0.371v0.014c0.139,0.4,0.201,0.818,0.201,1.248
		C-1060.325-703.311-1060.34-703.096-1060.386-702.877 M-1060.356-695.649c-0.016,0.309-0.092,0.619-0.201,0.928
		c-0.124,0.369-0.292,0.723-0.523,1.076c-0.093,0.156-0.201,0.309-0.324,0.449v0.016c-0.216,0.277-0.463,0.553-0.741,0.816
		c-0.464,0.447-1.002,0.877-1.634,1.297h-0.016c-0.941,0.613-2.065,1.172-3.331,1.648c-0.694,0.262-1.419,0.508-2.19,0.709
		c-2.852,0.818-6.198,1.279-9.791,1.279c-3.592,0-6.938-0.461-9.791-1.279c-2.176-0.6-4.055-1.404-5.52-2.357h-0.016
		c-0.632-0.42-1.172-0.85-1.634-1.297c-0.771-0.738-1.311-1.525-1.588-2.357c-0.154-0.432-0.231-0.879-0.231-1.342
		c0-0.82,0.247-1.604,0.725-2.361c0.277,0.463,0.647,0.91,1.094,1.344c0.911,0.879,2.128,1.678,3.609,2.359
		c1.047,0.508,2.25,0.938,3.546,1.295h0.015c2.852,0.816,6.199,1.279,9.791,1.279c3.593,0,6.939-0.463,9.791-1.279h0.016
		c0.755-0.201,1.48-0.447,2.174-0.709c0.478-0.186,0.941-0.371,1.372-0.586c1.481-0.682,2.698-1.48,3.608-2.359
		c0.431-0.418,0.802-0.85,1.064-1.295c0.092,0.246,0.216,0.477,0.37,0.709c0.029,0.061,0.078,0.139,0.123,0.199
		c0.016,0.016,0.016,0.016,0.016,0.031c0.17,0.445,0.247,0.91,0.247,1.373C-1060.325-695.925-1060.325-695.788-1060.356-695.649
		 M-1060.356-688.216v0.016c-0.03,0.293-0.092,0.568-0.184,0.846v0.018c-0.124,0.369-0.293,0.709-0.509,1.049v0.014
		c-0.093,0.17-0.216,0.338-0.354,0.508v0.016c-0.201,0.264-0.434,0.51-0.678,0.756c-0.479,0.479-1.049,0.928-1.696,1.344h-0.016
		c-0.941,0.615-2.065,1.17-3.331,1.65c-0.694,0.26-1.419,0.508-2.174,0.709h-0.016c-2.852,0.816-6.198,1.279-9.791,1.279
		c-3.592,0-6.938-0.463-9.791-1.279h-0.015c-2.174-0.604-4.04-1.404-5.505-2.359h-0.016c-0.647-0.416-1.218-0.865-1.696-1.344
		c-0.739-0.723-1.263-1.51-1.542-2.342v-0.018c-0.139-0.414-0.216-0.846-0.216-1.293c0-0.816,0.247-1.605,0.725-2.357
		c0.262,0.443,0.617,0.877,1.032,1.277c0.895,0.879,2.098,1.682,3.546,2.373h0.016c1.08,0.525,2.313,0.975,3.655,1.342h0.015
		c2.852,0.818,6.199,1.281,9.791,1.281c3.593,0,6.939-0.463,9.791-1.281h0.016c0.755-0.199,1.48-0.447,2.174-0.709
		c0.524-0.201,1.018-0.416,1.48-0.633h0.013c1.452-0.691,2.654-1.494,3.549-2.373c0.416-0.4,0.771-0.834,1.032-1.277
		c0.093,0.215,0.201,0.414,0.339,0.613v0.016c0.016,0.018,0.016,0.018,0.016,0.033c0.246,0.537,0.37,1.107,0.37,1.695
		C-1060.325-688.509-1060.325-688.354-1060.356-688.216 M-1060.557-680.013c-0.124,0.369-0.292,0.725-0.523,1.078
		c-0.278,0.447-0.633,0.879-1.064,1.279c-0.91,0.893-2.143,1.697-3.638,2.391c-3.392,1.572-8.11,2.543-13.323,2.543
		c-7.478,0-13.938-2.018-16.96-4.934c-0.771-0.738-1.311-1.525-1.588-2.357c-0.154-0.432-0.231-0.879-0.231-1.342
		c0-0.816,0.247-1.604,0.725-2.357c0.277,0.461,0.647,0.908,1.094,1.34c0.911,0.879,2.128,1.678,3.593,2.359
		c3.391,1.586,8.125,2.576,13.367,2.576c4.58,0,8.759-0.758,12.012-2.006c0.477-0.17,0.925-0.371,1.356-0.57
		c1.465-0.682,2.682-1.48,3.592-2.359c0.431-0.418,0.802-0.848,1.064-1.295c0.092,0.246,0.216,0.477,0.37,0.709
		c0.029,0.061,0.078,0.139,0.123,0.201c0.016,0.014,0.016,0.014,0.016,0.029c0.17,0.447,0.247,0.91,0.247,1.373
		S-1060.402-680.444-1060.557-680.013 M-1061.589-670.823c-2.698,3.223-9.528,5.52-17.516,5.52c-10.376,0-18.779-3.871-18.779-8.635
		c0-0.818,0.247-1.605,0.708-2.361c2.222,3.627,9.468,6.277,18.071,6.277c5.968,0,11.287-1.279,14.725-3.283
		c1.511-0.863,2.667-1.881,3.346-2.994c0.462,0.756,0.709,1.543,0.709,2.361C-1060.325-672.845-1060.771-671.796-1061.589-670.823
		 M-1060.71-727.085c0.262,0.447,0.617,0.878,1.033,1.28c0.879,0.879,2.08,1.68,3.532,2.358c1.094,0.525,2.297,0.987,3.653,1.357
		h0.03c2.854,0.816,6.214,1.279,9.808,1.279c3.592,0,6.952-0.463,9.805-1.279h0.031c1.356-0.37,2.56-0.832,3.655-1.357
		c1.449-0.678,2.651-1.479,3.53-2.358c0.415-0.402,0.771-0.833,1.048-1.28c0.463,0.755,0.71,1.542,0.71,2.359
		c0,0.43-0.077,0.861-0.2,1.279v0.016c-0.278,0.848-0.802,1.619-1.558,2.359c-0.479,0.478-1.049,0.925-1.696,1.34
		c-1.464,0.942-3.315,1.758-5.489,2.358h-0.031c-2.853,0.819-6.213,1.282-9.805,1.282c-3.594,0-6.955-0.463-9.808-1.282h-0.03
		c-2.174-0.6-4.024-1.417-5.49-2.358c-0.647-0.415-1.217-0.862-1.695-1.34c-0.755-0.741-1.279-1.511-1.556-2.359v-0.016
		c-0.125-0.418-0.202-0.85-0.202-1.279C-1061.436-725.543-1061.188-726.33-1060.71-727.085 M-1060.726-734.504
		c0.293,0.465,0.663,0.912,1.111,1.342c0.909,0.88,2.126,1.683,3.592,2.358c1.063,0.495,2.22,0.943,3.53,1.296h0.03
		c2.854,0.818,6.214,1.279,9.808,1.279c3.592,0,6.952-0.461,9.805-1.279h0.031c1.311-0.353,2.468-0.801,3.53-1.296
		c1.466-0.676,2.684-1.478,3.594-2.358c0.447-0.431,0.817-0.877,1.109-1.342c0.463,0.756,0.71,1.542,0.71,2.36
		c0,0.462-0.077,0.909-0.231,1.341c-0.279,0.834-0.816,1.619-1.588,2.361c-0.463,0.447-1.004,0.877-1.635,1.295
		c-1.464,0.94-3.315,1.756-5.489,2.359h-0.031c-2.853,0.816-6.213,1.279-9.805,1.279c-3.594,0-6.955-0.463-9.808-1.279h-0.03
		c-2.174-0.603-4.024-1.419-5.49-2.359c-0.63-0.418-1.17-0.848-1.632-1.295c-0.771-0.742-1.311-1.526-1.589-2.361
		c-0.154-0.432-0.231-0.878-0.231-1.341C-1061.436-732.962-1061.188-733.748-1060.726-734.504 M-1042.654-748.272
		c10.376,0,18.779,3.87,18.779,8.651c0,0.477-0.077,0.939-0.247,1.386c-0.293,0.833-0.832,1.621-1.604,2.346v0.014
		c-0.494,0.479-1.079,0.909-1.744,1.343c-1.51,0.956-3.47,1.756-5.703,2.36c-2.777,0.752-6.013,1.185-9.481,1.185
		c-3.47,0-6.708-0.433-9.485-1.185c-2.233-0.604-4.177-1.404-5.688-2.36c-0.679-0.416-1.264-0.864-1.758-1.343v-0.014
		c-0.771-0.725-1.311-1.513-1.604-2.346c-0.17-0.448-0.247-0.909-0.247-1.386C-1061.436-744.402-1053.032-748.272-1042.654-748.272
		 M-1021.347-705.735c0.632-0.153,1.295-0.168,1.942-0.215l0.987-0.048c0.077-0.015,0.153-0.015,0.23-0.015
		c0.093-0.014,0.187-0.014,0.292-0.014l0.479,0.029l1.913,0.123c0.632,0.048,1.311,0.233,1.942,0.34
		c1.326,0.185,2.482,0.726,3.655,1.079c0.539,0.294,1.109,0.508,1.634,0.771c0.046,0.033,0.092,0.048,0.123,0.062
		c0.509,0.246,0.956,0.494,1.372,0.803c0.462,0.308,0.926,0.616,1.357,0.894c0.432,0.307,0.817,0.664,1.202,0.973
		c0.34,0.324,0.726,0.602,1.032,0.91c0.31,0.336,0.587,0.646,0.85,0.939c0.539,0.568,0.986,1.096,1.295,1.572
		c0.554,0.818,0.909,1.777,0.971,1.9c-0.094-0.123-0.523-0.555-1.189-1.279c-0.368-0.418-0.846-0.879-1.462-1.359
		c-0.556-0.523-1.219-1.076-2.007-1.586c-0.385-0.279-0.771-0.586-1.2-0.85c-0.447-0.244-0.895-0.492-1.372-0.754
		c-0.463-0.279-0.958-0.508-1.481-0.695c-0.523-0.232-1.048-0.446-1.571-0.679c-1.127-0.291-2.251-0.738-3.439-0.878
		c-0.601-0.108-1.172-0.261-1.804-0.308l-1.913-0.092l-0.462-0.031c-0.046-0.016-0.123-0.016-0.216,0
		c-0.077,0-0.153,0.014-0.215,0.014l-0.91,0.048c-0.616,0.028-1.248,0.028-1.834,0.153c-0.604,0.094-1.188,0.202-1.789,0.293
		c-0.34,0.092-0.681,0.186-1.003,0.275c-0.23,0.062-0.462,0.125-0.693,0.186c-0.153,0.033-0.292,0.078-0.433,0.109
		c-0.417,0.139-0.802,0.309-1.188,0.463c-0.522,0.2-1.048,0.337-1.525,0.601c-0.465,0.246-0.925,0.463-1.356,0.693
		c-0.464,0.232-0.895,0.48-1.279,0.771c-0.434,0.279-0.85,0.541-1.235,0.803c-0.322,0.23-0.616,0.463-0.878,0.691
		c-0.585,0.465-1.141,0.881-1.497,1.297c-0.723,0.678-1.156,1.111-1.263,1.201c0.077-0.105,0.447-1.049,1.048-1.82
		c0.324-0.479,0.802-0.959,1.358-1.512c0.17-0.168,0.337-0.355,0.523-0.539c0.123-0.125,0.247-0.248,0.386-0.371
		c0.015-0.014,0.015-0.014,0.031-0.029h0.014c0.324-0.264,0.68-0.541,1.048-0.82c0.232-0.197,0.479-0.385,0.741-0.568
		c0.292-0.201,0.602-0.386,0.926-0.587c0.323-0.184,0.646-0.387,0.956-0.586c0.478-0.292,1.018-0.507,1.542-0.755
		c0.231-0.107,0.479-0.23,0.709-0.338c0.277-0.109,0.554-0.216,0.832-0.294c0.047-0.016,0.107-0.029,0.155-0.044
		c0.231-0.079,0.462-0.155,0.692-0.231c0.355-0.125,0.708-0.232,1.08-0.355C-1022.611-705.503-1021.979-705.613-1021.347-705.735
		 M-992.993-685.872c-0.617-13.998-11.224-25.023-25.023-25.023h-0.17v-28.34c0-8.294-10.283-14.324-24.454-14.324
		c-14.199,0-24.484,6.029-24.484,14.324v23.005c-3.485-1.066-7.54-1.651-11.981-1.651c-14.169,0-24.468,6.03-24.468,14.339v29.589
		c0,8.309,10.299,14.354,24.468,14.354c10.625,0,19.058-3.391,22.62-8.57c3.855,1.463,8.586,2.297,13.845,2.297
		c1.512,0,2.977-0.062,4.378-0.201c4.551,6.273,11.937,10.346,20.246,10.346c13.8,0,24.763-11.162,25.023-25.039
		C-992.977-682.034-992.945-684.61-992.993-685.872"/>
</g>
<g id="g8744" transform="translate(1102.3062,762.2812)" opacity="0.3">
	<path id="path8746" fill="#555555" d="M-1012.644-683.943c-0.616,0.309-1.542,0.463-2.775,0.463h-2.945v-0.293v-4.146h1.388h1.141
		c1.45,0,2.483,0.139,3.131,0.416c0.663,0.293,0.986,0.879,0.986,1.773S-1012.027-684.236-1012.644-683.943 M-1018.364-695.49h1.449
		h0.617c1.265,0,2.174,0.139,2.698,0.416c0.539,0.277,0.802,0.848,0.802,1.697c0,0.846-0.292,1.416-0.863,1.664
		c-0.586,0.262-1.465,0.385-2.667,0.385h-0.587h-1.449V-695.49z M-1011.194-689.865c0.324-0.139,0.556-0.244,0.693-0.307
		c0.124-0.061,0.355-0.23,0.679-0.492c0.988-0.725,1.464-1.85,1.464-3.361c0-1.25-0.431-2.375-1.294-3.361
		c-0.479-0.541-1.187-0.957-2.127-1.281c-0.525-0.168-1.096-0.275-1.696-0.354v-2.576h-2.113v2.467h-1.326h-0.986v-2.467h-2.098
		v2.467h-3.314h-0.015h-2.607h-0.261h-0.016v0.188v2.574v0.879h1.943c0.415,0,0.955,0.061,1.278,0.477v0.016
		c0.201,0.23,0.309,0.57,0.309,1.066v0.646v3.191v1.541v3.516c0,1.418-0.94,1.557-1.587,1.557h-1.943v3.639h4.179h2.034v2.467h2.098
		v-2.467h2.312v2.467h2.113v-2.482c2.235-0.107,3.854-0.693,4.825-1.773c0.909-1.033,1.372-2.219,1.372-3.561
		c0-1.219-0.354-2.238-1.063-3.053C-1009.052-689.06-1009.991-689.602-1011.194-689.865"/>
</g>
</svg>
