<?xml version="1.0" encoding="utf-8"?>
<!-- Generator: Adobe Illustrator 16.0.0, SVG Export Plug-In . SVG Version: 6.00 Build 0)  -->
<!DOCTYPE svg PUBLIC "-//W3C//DTD SVG 1.1//EN" "http://www.w3.org/Graphics/SVG/1.1/DTD/svg11.dtd">
<svg version="1.1" id="Layer_1" xmlns="http://www.w3.org/2000/svg" xmlns:xlink="http://www.w3.org/1999/xlink" x="0px" y="0px"
	 width="128px" height="128px" viewBox="0 0 128 128" enable-background="new 0 0 128 128" xml:space="preserve">
<g id="g8636" transform="translate(626.0054,775.04)" opacity="0.5">
	<path id="path8638" fill="#F2F2F2" d="M-555.06-696.955c0.905-0.407,1.365-1.278,1.365-2.62c0-1.348-0.427-2.233-1.275-2.676
		c-0.834-0.424-2.25-0.64-4.232-0.64h-3.26v6.535h3.225C-557.379-696.355-555.981-696.552-555.06-696.955"/>
</g>
<g id="g8640" transform="translate(626.8657,771.3008)" opacity="0.5">
	<path id="path8642" fill="#F2F2F2" d="M-554.397-686.596c-1.045-0.459-2.674-0.691-4.94-0.691h-3.984v6.995h4.639
		c1.932,0,3.383-0.247,4.356-0.726s1.453-1.399,1.453-2.816C-552.874-685.231-553.371-686.152-554.397-686.596"/>
</g>
<g id="g8644" transform="translate(630.4458,766.1006)" opacity="0.5">
	<path id="path8646" fill="#F2F2F2" d="M-551.637-672.378c-1.505,1.699-4.038,2.62-7.579,2.781v3.912h-3.329v-3.876h-3.611v3.876
		h-3.312v-3.876h-9.757v-5.722h3.064c1.008,0,2.495-0.211,2.495-2.443v-13.989c0-2.213-1.487-2.427-2.495-2.427h-3.064v-5.732h9.757
		v-3.882h3.312v3.882h3.611v-3.882h3.329v4.04c0.956,0.121,1.859,0.317,2.656,0.583c1.486,0.495,2.604,1.151,3.364,2.001
		c1.363,1.558,2.036,3.312,2.036,5.276c0,2.374-0.761,4.145-2.302,5.295c-0.514,0.41-0.886,0.653-1.081,0.762
		c-0.193,0.104-0.565,0.266-1.079,0.495c1.876,0.406,3.365,1.256,4.479,2.531c1.115,1.292,1.682,2.905,1.682,4.801
		C-549.46-675.866-550.186-674.007-551.637-672.378 M-549.124-685.924c0.903-1.417,1.612-3.325,1.612-5.932
		c0-2.869-0.992-5.454-2.975-7.72c-1.169-1.312-2.833-2.338-4.941-3.03c-0.035-0.017-0.089-0.036-0.142-0.052v-4.743h-17.548v3.874
		h-9.757v13.034h5.561v11.562h-5.561v13.016h9.757v3.879h17.548v-4.339c2.833-0.603,5.064-1.807,6.658-3.577
		c2.055-2.302,3.1-5.011,3.1-8.021c0-2.801-0.868-5.224-2.568-7.191C-548.626-685.429-548.875-685.694-549.124-685.924"/>
</g>
<g id="g8648" transform="translate(606.8384,804.3359)" opacity="0.5">
	<path id="path8650" fill="#F2F2F2" d="M-569.833-778.319c0.055-1.082,0.055-1.826,0.206-2.872c0.13-0.989,0.299-1.979,0.559-2.893
		c0.485-1.866,1.195-3.674,2.164-5.242c0.952-1.586,2.072-2.987,3.323-4.108c1.212-1.154,2.537-2.034,3.767-2.797
		c1.25-0.707,2.464-1.248,3.545-1.677c1.082-0.412,2.035-0.709,2.836-0.916c1.587-0.486,2.596-0.298,2.596-0.298l0.427,1.293
		c0,0-0.203,0.149-0.595,0.336c-0.373,0.206-0.971,0.355-1.697,0.616c-0.747,0.245-1.624,0.581-2.613,1.029
		c-0.971,0.448-2.033,1.025-3.152,1.733c-2.165,1.455-4.333,3.293-5.864,6.092c-0.783,1.382-1.326,2.966-1.699,4.589
		c-0.203,0.841-0.315,1.66-0.372,2.484c-0.11,0.762-0.072,1.847-0.11,2.628c0.039,3.247,0.075,6.494,0.094,9.572h-3.507
		C-569.909-771.826-569.871-775.072-569.833-778.319 M-526.031-776.929v8.181h-33.146v-8.181c0-11.242,11.597-12.466,16.573-12.466
		C-537.611-789.394-526.031-788.17-526.031-776.929 M-501.344-694.319h-76.355h-6.125v-56.611h6.125h3.77h3.898h3.258h7.596h33.146
		h14.751h9.936V-694.319z M-590.309-689.256h0.851h2.497h5.099h78.551h1.115h3.984h2.515h0.831v7.667h-7.33h-88.113V-689.256z
		 M-590.309-763.666h6.817h9.562h3.969h3.132h7.652h33.146h14.751h9.084h0.513h6.817v7.67h-0.619h-2.317h-4.394h-0.175h-8.909
		h-14.751h-33.146h-7.596h-3.243h-3.914h-8.851h-4.586h-2.302h-0.64V-763.666z M-494.139-750.931c2.394,0,4.356-1.951,4.356-4.358
		v-9.103c0-2.391-1.963-4.356-4.356-4.356h-17.141v-8.181c0-16.273-12.59-27.216-31.324-27.216
		c-18.732,0-31.325,10.943-31.325,27.216v8.181h-17.088c-2.406,0-4.355,1.966-4.355,4.356v9.103c0,2.407,1.949,4.358,4.355,4.358
		h1.046v45.686c-0.003,0.011-0.004,0.027-0.005,0.038l0.005,0.003v10.885h-1.046c-2.406,0-4.355,1.945-4.355,4.355v9.08
		c0,2.413,1.949,4.357,4.355,4.357h96.878c2.394,0,4.356-1.944,4.356-4.357v-9.08c0-2.41-1.963-4.355-4.356-4.355h-1.044v-56.611
		H-494.139z"/>
</g>
</svg>
