<?xml version="1.0" encoding="utf-8"?>
<!-- Generator: Adobe Illustrator 16.0.0, SVG Export Plug-In . SVG Version: 6.00 Build 0)  -->
<!DOCTYPE svg PUBLIC "-//W3C//DTD SVG 1.1//EN" "http://www.w3.org/Graphics/SVG/1.1/DTD/svg11.dtd">
<svg version="1.1" id="Layer_1" xmlns="http://www.w3.org/2000/svg" xmlns:xlink="http://www.w3.org/1999/xlink" x="0px" y="0px"
	 width="128px" height="73.108px" viewBox="0 0 128 73.108" enable-background="new 0 0 128 73.108" xml:space="preserve">
<g id="g9048" transform="translate(187.5181,468.3906)" opacity="0.3">
	<path id="path9050" fill="#555555" d="M-181.889-462.571c12.361,2.222,22.743,3.593,28.142,3.696
		c12.348,0.175,24.043-1.011,35.319-2.166c10.512-1.069,20.447-2.094,30.946-2.094c4.576,0,8.908,0.203,13.138,0.607v3.725
		c-4.014-0.388-8.2-0.578-12.62-0.578c-10.784,0-21.687,1.142-32.228,2.239c-10.396,1.098-21.168,2.222-31.682,2.222
		c-8.792,0-16.606-0.778-23.884-2.397c-0.779-0.172-1.586,0.013-2.209,0.521c-0.62,0.492-0.981,1.241-0.981,2.051v43.996
		c-1.327-0.172-2.642-0.361-3.941-0.579V-462.571z M-65.145-406.084c-5.371-0.823-10.989-1.226-17.053-1.226
		c-12.42,0-24.951,1.731-37.083,3.406c-11.939,1.647-24.301,3.35-36.357,3.35c-6.109,0-11.696-0.42-17.053-1.285v-3.105v-2.644
		v-2.64v-12.808v-3.407v-16.116v-3.321v-5.647c0.879,0.162,1.761,0.319,2.657,0.464c3.393,0.536,6.9,0.91,10.555,1.142h0.187
		c2.715,0.172,5.518,0.258,8.418,0.258c1.834,0,3.654-0.027,5.487-0.115h0.016c1.254-0.013,2.499-0.072,3.74-0.143
		c7.738-0.393,15.451-1.198,22.988-1.98c1.501-0.158,3.004-0.316,4.505-0.462c1.183-0.128,2.368-0.246,3.553-0.361
		c7.061-0.69,14.208-1.271,21.254-1.371c0.794-0.028,1.588-0.028,2.367-0.028c0.319,0,0.649,0,0.968,0.014
		c4.086,0.015,7.958,0.217,11.652,0.607c0.896,0.07,1.762,0.171,2.63,0.289c0.88,0.115,1.762,0.23,2.628,0.374
		c1.343,0.204,2.641,0.42,3.941,0.68V-406.084z M-61.941-456.868c-2.323-0.518-4.705-0.953-7.146-1.285v-6.744
		c0-1.342-0.996-2.467-2.325-2.628c-5.184-0.575-10.441-0.865-16.07-0.865c-10.758,0-21.299,1.068-31.479,2.122
		c-11.133,1.127-22.759,2.31-34.685,2.122c-5.501-0.098-17.141-1.702-30.38-4.17c-0.767-0.13-1.575,0.07-2.166,0.561
		c-0.607,0.508-0.955,1.245-0.955,2.037v56.59c0,1.256,0.896,2.339,2.124,2.584c2.311,0.447,4.664,0.823,7.074,1.098v5.82
		c0,1.255,0.896,2.353,2.139,2.584c6.325,1.183,12.921,1.762,20.172,1.762c12.417,0,24.952-1.735,37.079-3.41
		c11.944-1.657,24.303-3.364,36.361-3.364c6.931,0,13.198,0.55,19.19,1.676c0.78,0.146,1.574-0.057,2.18-0.561
		c0.593-0.491,0.938-1.245,0.938-2.023v-51.333C-59.89-455.525-60.742-456.594-61.941-456.868"/>
</g>
<g id="g9052" transform="translate(230.2075,439.2324)" opacity="0.3">
	<path id="path9054" fill="#555555" d="M-162.564-391.309v-4.921c0.938-0.116,1.877-0.231,2.815-0.347
		c1.589-0.189,2.758-0.177,3.479,0.057c0.145,0.042,0.291,0.101,0.406,0.188c0.446,0.301,0.677,0.839,0.677,1.617
		c0,0.994-0.347,1.689-1.024,2.11c-0.42,0.258-0.982,0.476-1.675,0.634h-0.016c-0.418,0.101-0.881,0.186-1.385,0.244
		C-160.384-391.582-161.467-391.453-162.564-391.309 M-157.265-404.764c0.592,0.246,0.896,0.837,0.896,1.773
		c0,0.939-0.33,1.591-0.982,1.952c-0.635,0.36-1.616,0.62-2.945,0.778c-0.13,0.015-0.274,0.027-0.404,0.041
		c-0.621,0.075-1.239,0.162-1.862,0.231v-4.618c0.765-0.089,1.532-0.175,2.296-0.261c0.261-0.027,0.493-0.059,0.722-0.059
		C-158.521-405.009-157.756-404.953-157.265-404.764 M-151.605-398.066c-0.779-0.722-1.776-1.139-3.004-1.255
		c0.377-0.202,0.622-0.347,0.767-0.447c0.146-0.089,0.403-0.288,0.765-0.606c1.083-0.939,1.617-2.223,1.617-3.884
		c0-1.374-0.477-2.555-1.429-3.553l-0.015-0.014c-0.535-0.52-1.328-0.895-2.353-1.126c-0.58-0.116-1.2-0.175-1.893-0.189v-2.828
		c-0.781,0.07-1.561,0.158-2.34,0.245v2.745c-0.837,0.085-1.689,0.188-2.542,0.288v-1.212v-1.531
		c-0.779,0.102-1.559,0.188-2.338,0.273v2.744c-0.983,0.103-1.979,0.217-2.975,0.333c-1.299,0.143-2.614,0.287-3.913,0.435v2.036
		v2.003c0.722-0.069,1.444-0.157,2.151-0.23c0.722-0.084,1.762-0.057,1.762,1.517v1.139v6.845v1.907
		c0.014,1.574-1.04,1.847-1.762,1.935c-0.707,0.087-1.429,0.175-2.151,0.259v4.045c1.299-0.157,2.614-0.319,3.913-0.477
		c0.996-0.13,1.979-0.26,2.975-0.376v2.282v0.449l2.338-0.305v-0.449v-2.282c0.853-0.115,1.705-0.213,2.542-0.329v2.309v0.418
		c0.797-0.102,1.559-0.2,2.34-0.302v-0.391V-388c2.512-0.436,4.303-1.3,5.356-2.602c0.059-0.069,0.116-0.142,0.158-0.213
		c0.825-1.068,1.271-2.226,1.344-3.453c0.029-0.143,0.029-0.273,0.029-0.42c0-1.344-0.39-2.412-1.171-3.217
		C-151.49-397.963-151.547-398.02-151.605-398.066"/>
</g>
<g id="g9056" transform="translate(219.2476,432.0215)" opacity="0.3">
	<path id="path9058" fill="#555555" d="M-167.43-373.686c-8.375,0.894-14.844,1.24-21.241,1.112
		c-0.014-0.391-0.058-0.766-0.086-1.142c-0.202-1.805-0.693-3.479-1.819-4.765c-0.894-1.07-2.253-1.875-4.231-2.296v-0.981v-14.615
		c0.334-0.027,0.65-0.071,0.938-0.129c2.253-0.445,3.552-1.792,4.289-3.38c0.665-1.396,0.896-3.016,0.982-4.387
		c2.874,0.115,5.834,0.13,8.983,0.055c1.111-0.027,2.251-0.069,3.421-0.127c2.744-0.117,5.646-0.302,8.779-0.562
		c-1.588,3.55-3.812,9.672-3.812,16.199c0,2.614,0.375,5.114,0.94,7.377c0.1,0.406,0.201,0.797,0.316,1.185
		c0.477,1.689,1.054,3.222,1.632,4.536C-168.036-374.898-167.719-374.263-167.43-373.686 M-167.17-392.647
		c0.332-2.411,0.953-4.693,1.603-6.669c1.314-3.897,2.845-6.613,2.96-6.817c0.159-0.288,0.246-0.607,0.246-0.935
		c0-0.521-0.23-1.027-0.621-1.388c-0.389-0.361-0.91-0.519-1.43-0.477c-1.761,0.158-3.451,0.304-5.083,0.435
		c-1.978,0.143-3.868,0.259-5.673,0.347c-1.214,0.07-2.384,0.111-3.54,0.142c-4.173,0.131-7.956,0.085-11.622-0.115
		c-0.507-0.012-1.027,0.159-1.402,0.52c-0.375,0.347-0.592,0.852-0.592,1.37c0,5.706-1.3,6.137-3.307,6.137
		c-0.274,0-0.562-0.014-0.866-0.042c-0.534-0.043-1.052,0.116-1.444,0.477c-0.389,0.361-0.621,0.864-0.621,1.388v13.008v6.125
		c0,0.23,0.043,0.444,0.117,0.662c0.258,0.651,0.865,1.143,1.602,1.199c2.873,0.244,3.971,0.979,4.317,3.696
		c0.087,0.722,0.13,1.602,0.13,2.642v0.201c0,1.026,0.811,1.851,1.82,1.878c1.386,0.061,2.774,0.075,4.16,0.075
		c1.458,0,2.946-0.033,4.46-0.075h0.043c5.227-0.158,10.904-0.605,17.804-1.401c0.534-0.057,0.996-0.329,1.299-0.737
		c0.161-0.217,0.276-0.461,0.333-0.734c0.116-0.547-0.029-1.098-0.347-1.532c-0.028-0.041-0.115-0.157-0.23-0.36
		c-0.289-0.447-0.809-1.296-1.386-2.482c-1.329-2.729-3.004-7.164-3.033-12.416v-0.176
		C-167.474-390.031-167.358-391.359-167.17-392.647"/>
</g>
<g id="g9060" transform="translate(258.6382,438.6816)" opacity="0.3">
	<path id="path9062" fill="#555555" d="M-149.942-389.963c-0.681,1.125-0.984,2.498-1.113,3.941c0,0.159-0.014,0.317-0.027,0.479
		c-6.456-0.13-13.04,0.172-21.069,0.966c0.246-0.535,0.506-1.127,0.766-1.761c0.563-1.344,1.128-2.888,1.604-4.606
		c0.289-1.069,0.562-2.18,0.764-3.351c0.289-1.675,0.476-3.451,0.476-5.271c0-6.337-2.238-12.13-3.897-15.495
		c7.017-0.547,12.923-0.749,18.483-0.634c0.968,0.028,1.921,0.06,2.858,0.087c0.058,1.112,0.187,2.195,0.476,3.207
		c0.681,2.367,2.181,4.332,5.53,5.125v14.569C-147.343-392.519-148.96-391.596-149.942-389.963 M-142.462-410.596
		c-0.146-0.073-0.29-0.101-0.449-0.115c-0.879-0.088-1.601-0.231-2.181-0.477c-1.79-0.737-2.295-2.411-2.281-6.196
		c0-1.01-0.779-1.834-1.774-1.876c-0.491-0.032-0.968-0.059-1.475-0.073c-2.078-0.102-4.229-0.144-6.409-0.144
		c-0.564,0-1.141,0-1.72,0.014c-5.054,0.043-10.482,0.333-16.865,0.894c-0.751,0.073-1.385,0.579-1.616,1.286
		c-0.188,0.565-0.103,1.157,0.201,1.633c0.187,0.273,4.723,7.581,4.723,16.084c0,1.893-0.219,3.712-0.564,5.429
		c-0.245,1.198-0.549,2.34-0.894,3.396c-0.578,1.832-1.242,3.436-1.836,4.676c-0.635,1.346-1.185,2.298-1.429,2.702
		c-0.015,0.014-0.028,0.028-0.028,0.057c-0.173,0.291-0.275,0.637-0.275,0.967c0,0.535,0.231,1.041,0.636,1.402
		c0.101,0.088,0.201,0.157,0.305,0.216h0.013c0.276,0.174,0.594,0.26,0.924,0.26c0.074,0,0.146,0,0.217-0.014
		c2.817-0.318,5.474-0.563,7.986-0.765h0.13c4.809-0.391,9.125-0.564,13.228-0.564c1.528,0,3.044,0.015,4.576,0.071
		c0.504,0.032,0.995-0.173,1.372-0.519c0.202-0.203,0.345-0.433,0.446-0.694c0.088-0.214,0.13-0.431,0.13-0.663
		c0-0.619,0-1.314,0.058-1.963c0.088-0.97,0.262-1.863,0.592-2.456c0.16-0.259,0.448-0.736,1.632-0.894
		c0.246-0.046,0.549-0.06,0.896-0.06c0.304,0,0.607,0.014,0.939,0.045c0.273,0.027,0.55-0.017,0.795-0.114
		c0.23-0.075,0.462-0.204,0.634-0.38c0.392-0.36,0.606-0.863,0.606-1.384v-18.035C-141.222-409.659-141.741-410.35-142.462-410.596"
		/>
</g>
<g id="g9064" transform="translate(211.0181,443.8418)" opacity="0.3">
	<path id="path9066" fill="#555555" d="M-171.084-402.574v-0.015c-0.434-0.272-0.967-0.447-1.532-0.434
		c-1.501,0.031-2.713,1.259-2.713,2.789c0,1.516,1.226,2.755,2.713,2.729c1.141-0.029,2.108-0.767,2.514-1.791v-0.015
		c0.13-0.315,0.201-0.663,0.201-1.024C-169.901-401.274-170.362-402.098-171.084-402.574"/>
</g>
<g id="g9068" transform="translate(253.2476,447.3711)" opacity="0.3">
	<path id="path9070" fill="#555555" d="M-152.335-411.199c-1.501,0.028-2.714,1.254-2.714,2.787c0,0.837,0.36,1.573,0.924,2.063
		c0.476,0.434,1.099,0.694,1.79,0.68c1.487-0.03,2.714-1.314,2.714-2.831c0-0.562-0.172-1.098-0.46-1.516
		C-150.574-410.753-151.397-411.213-152.335-411.199"/>
</g>
</svg>
