<?xml version="1.0" encoding="utf-8"?>
<!-- Generator: Adobe Illustrator 16.0.0, SVG Export Plug-In . SVG Version: 6.00 Build 0)  -->
<!DOCTYPE svg PUBLIC "-//W3C//DTD SVG 1.1//EN" "http://www.w3.org/Graphics/SVG/1.1/DTD/svg11.dtd">
<svg version="1.1" id="Layer_1" xmlns="http://www.w3.org/2000/svg" xmlns:xlink="http://www.w3.org/1999/xlink" x="0px" y="0px"
	 width="128px" height="99.45px" viewBox="0 0 128 99.45" enable-background="new 0 0 128 99.45" xml:space="preserve">
<path id="path9668" opacity="0.3" fill="#555555" d="M115.833,13.435H91.54V8.197h24.293V13.435z M115.833,89.09H12.183v-68.35
	h103.65V89.09L115.833,89.09z M14.845,7.621c1.816,0,3.304,1.484,3.304,3.3c0,1.836-1.488,3.323-3.304,3.323
	c-1.836,0-3.322-1.487-3.322-3.323C11.523,9.105,13.009,7.621,14.845,7.621 M25.503,7.646c1.805,0,3.28,1.474,3.28,3.278
	c0,1.819-1.475,3.295-3.28,3.295c-1.819,0-3.293-1.476-3.293-3.295C22.209,9.12,23.684,7.646,25.503,7.646 M36.641,7.671
	c1.807,0,3.271,1.462,3.271,3.25c0,1.809-1.464,3.269-3.271,3.269c-1.806,0-3.25-1.46-3.25-3.269
	C33.39,9.133,34.835,7.671,36.641,7.671 M121.748,0H7.738C4.482,0,1.806,1.189,1.806,4.443v89.09c0,3.257,2.676,5.916,5.932,5.916
	h114.01c3.256,0,4.446-2.659,4.446-5.916V4.443C126.194,1.189,125.004,0,121.748,0"/>
<g id="g9670" transform="translate(627.1929,559.1553)" opacity="0.3">
	<path id="path9672" fill="#555555" d="M-558.007-506.768c0.857-0.381,1.287-1.206,1.287-2.479c0-1.26-0.396-2.101-1.188-2.514
		c-0.796-0.413-2.133-0.612-4.018-0.612h-3.074v6.183h3.04C-560.19-506.189-558.87-506.375-558.007-506.768"/>
</g>
<g id="g9674" transform="translate(628.1021,552.1768)" opacity="0.3">
	<path id="path9676" fill="#555555" d="M-557.414-488.258c0.926-0.46,1.389-1.336,1.389-2.658c0-1.323-0.479-2.198-1.455-2.627
		c-0.977-0.413-2.527-0.63-4.659-0.63h-3.769v6.594h4.397C-559.695-487.58-558.323-487.81-557.414-488.258"/>
</g>
<g id="g9678" transform="translate(615.9224,548.4971)" opacity="0.3">
	<path id="path9680" fill="#555555" d="M-565.362-478.497v-5.403h2.892c0.958,0,2.363-0.198,2.363-2.294v-13.221
		c0-2.102-1.405-2.298-2.363-2.298h-2.892v-5.403h9.221v-3.67h3.123v3.67h3.421v-3.67h3.123v3.818
		c0.909,0.117,1.752,0.298,2.529,0.547c1.388,0.461,2.462,1.091,3.173,1.864c1.272,1.489,1.916,3.158,1.916,5.01
		c0,2.229-0.726,3.898-2.164,5.005c-0.496,0.38-0.844,0.61-1.041,0.71c-0.183,0.1-0.529,0.249-1.008,0.482
		c1.77,0.377,3.173,1.171,4.23,2.378c1.057,1.223,1.586,2.728,1.586,4.528c0,1.996-0.694,3.75-2.047,5.287
		c-1.423,1.603-3.836,2.479-7.175,2.627v3.703h-3.123v-3.671h-3.421v3.671h-3.123v-3.671H-565.362z M-560.818-470.166h19.005v-4.365
		c2.495-0.676,4.511-1.865,5.981-3.519c2.148-2.396,3.239-5.222,3.239-8.394c0-2.944-0.909-5.505-2.727-7.57
		c-0.032-0.05-0.066-0.082-0.1-0.132c0.811-1.57,1.224-3.372,1.224-5.402c0-3.009-1.042-5.736-3.124-8.114
		c-1.106-1.239-2.628-2.235-4.494-2.96v-4.825h-19.005v3.653h-9.205v14.739h5.239v8.492h-5.239v14.725h9.205V-470.166z"/>
</g>
</svg>
