<?xml version="1.0" encoding="utf-8"?>
<!-- Generator: Adobe Illustrator 16.0.0, SVG Export Plug-In . SVG Version: 6.00 Build 0)  -->
<!DOCTYPE svg PUBLIC "-//W3C//DTD SVG 1.1//EN" "http://www.w3.org/Graphics/SVG/1.1/DTD/svg11.dtd">
<svg version="1.1" id="Layer_1" xmlns="http://www.w3.org/2000/svg" xmlns:xlink="http://www.w3.org/1999/xlink" x="0px" y="0px"
	 width="128px" height="128px" viewBox="0 0 128 128" enable-background="new 0 0 128 128" xml:space="preserve">
<g id="g9304" transform="translate(851.7573,454.0889)">
	<path id="path9306" opacity="0.3" fill="#555555" d="M-771.124-383.036c-0.383,1.448-1.713,2.457-3.144,2.638c0,0,0,0.038-0.019,0
		c-0.466,0.1-0.928,0.08-1.392-0.062c-1.972-0.543-3.121-2.576-2.576-4.552c0.422-1.631,1.892-2.738,3.564-2.738
		c0.081,0,0.203,0,0.322,0.02c0.142,0,0.303,0.04,0.462,0.08c0.08,0.021,0.121,0.021,0.185,0.041c0.038,0.021,0.1,0.021,0.138,0.038
		C-771.708-386.965-770.599-384.972-771.124-383.036 M-824.895-358.824c0.158-0.591,0.511-1.082,1.039-1.395l0.042-0.039
		l0.236-0.098c0.156-0.099,0.353-0.139,0.548-0.158l0.021-0.019l0.314-0.02c0.803,0,1.53,0.431,1.924,1.1l0.51,0.864l4.775,7.837
		c0.292,0.531,0.39,1.12,0.255,1.71c-0.12,0.549-0.471,1.061-1.002,1.375c-0.356,0.215-0.766,0.333-1.178,0.333
		c-0.786,0-1.535-0.413-1.924-1.081l-4.951-8.131l-0.333-0.59C-824.936-357.626-825.031-358.234-824.895-358.824 M-841.945-349.454
		c0.14-0.569,0.491-1.08,1.003-1.395c0.39-0.236,0.766-0.335,1.179-0.335c0.806,0,1.532,0.413,1.924,1.099l5.284,8.723
		c0.314,0.511,0.393,1.12,0.253,1.709c-0.135,0.59-0.508,1.061-1.019,1.375c-0.333,0.197-0.726,0.315-1.138,0.315
		c-0.806,0-1.552-0.413-1.944-1.082l-5.287-8.739C-841.984-348.256-842.082-348.845-841.945-349.454 M-724.542-415.709
		l-12.041-21.137c-0.393-0.704-1.061-1.215-1.847-1.432l-23.474-6.442c-0.784-0.216-1.609-0.118-2.315,0.294l-21.136,12.021
		c-0.707,0.413-1.238,1.08-1.453,1.864l-5.265,19.229l-38.557,23.632l-0.569,0.352l-15.283,9.372
		c-0.647,0.393-1.139,1.019-1.356,1.747l-3.416,11.531c-0.236,0.806-0.118,1.67,0.292,2.394l5.64,9.863
		c-0.373,0.569-0.647,1.236-0.824,1.922c-0.413,1.712-0.14,3.479,0.764,4.973l5.285,8.74c1.198,1.965,3.298,3.163,5.618,3.163
		c1.195,0,2.377-0.335,3.416-0.964c3.086-1.866,4.085-5.933,2.199-9.016l-5.28-8.74c-1.199-1.984-3.302-3.163-5.618-3.163
		c-0.078,0-0.176,0-0.256,0.019l-4.969-8.699l2.708-9.154l10.767-6.6l-0.393,8.739c-0.02,0.513,0.078,1.023,0.314,1.473l3.614,7.506
		c-1.535,2.082-1.771,4.969-0.354,7.326l5.302,8.721c1.18,1.964,3.339,3.183,5.62,3.183c1.198,0,2.377-0.334,3.399-0.964
		c1.512-0.902,2.572-2.335,2.985-4.045c0.413-1.709,0.158-3.479-0.766-4.988l-5.286-8.725c-1.156-1.902-3.14-3.081-5.36-3.14
		l-2.162-4.479l-1.019-5.283l0.413-9.174l37.357-22.901c0.667-0.413,1.159-1.062,1.376-1.808l5.262-19.191l18.918-10.785
		l20.998,5.776l10.783,18.934l-5.755,21l-18.938,10.762l-12.117-3.317c-0.473-2.75-2.517-5.127-5.384-5.934
		c-0.648-0.175-1.316-0.273-1.982-0.273c-3.359,0-6.323,2.279-7.208,5.52c-1.1,3.969,1.254,8.09,5.224,9.192
		c0.649,0.178,1.317,0.256,1.984,0.256c2.315,0,4.438-1.08,5.854-2.81l13.235,3.634c0.789,0.216,1.613,0.116,2.341-0.296
		l21.115-12.039c0.707-0.393,1.236-1.062,1.453-1.846l6.44-23.452C-724.032-414.156-724.148-415.001-724.542-415.709"/>
</g>
<g id="g9308" transform="translate(832.2524,446.8125)" opacity="0.3">
	<path id="path9310" fill="#555555" d="M-789.931-361.469c0.135-0.626,0.511-1.117,1.022-1.432c0.351-0.218,0.744-0.333,1.155-0.333
		c0.318,0,0.649,0.078,0.945,0.217c0.433,0.196,0.764,0.49,1.002,0.881l5.284,8.703c0.293,0.491,0.391,1.098,0.256,1.71
		c-0.138,0.566-0.491,1.058-1.042,1.394c-0.333,0.196-0.726,0.312-1.122,0.312c-0.806,0-1.552-0.433-1.944-1.099l-5.302-8.681
		c-0.234-0.454-0.333-0.924-0.296-1.358C-789.972-361.211-789.952-361.348-789.931-361.469 M-743.145-403.405
		c0.412-1.588,1.886-2.708,3.557-2.708c0.137,0,0.276,0,0.392,0.038h0.041c0.175,0,0.352,0.059,0.528,0.1
		c1.985,0.511,3.126,2.57,2.594,4.554c-0.528,1.908-2.631,3.104-4.536,2.575c-0.472-0.14-0.902-0.354-1.259-0.647
		c-0.037,0.017-0.037,0-0.037,0C-743.005-400.379-743.558-401.932-743.145-403.405 M-718.551-406.744l-6.874-12.077
		c-0.413-0.709-1.081-1.218-1.866-1.436l-13.398-3.674c-0.806-0.213-1.667-0.115-2.394,0.314l-10.018,5.991
		c-0.671,0.413-1.181,1.06-1.375,1.808l-2.299,8.231c-0.435,1.59,0.47,3.279,2.08,3.752l7.683,2.299
		c0.352,2.946,2.436,5.497,5.438,6.342c0.649,0.178,1.318,0.258,1.985,0.258c3.359,0,6.325-2.259,7.21-5.503
		c1.097-3.965-1.261-8.112-5.226-9.192c-0.647-0.175-1.315-0.273-1.984-0.273c-2.199,0-4.225,0.96-5.6,2.534l-4.869-1.473
		l1.159-4.145l7.837-4.674l10.92,2.983l5.619,9.881l-3.005,10.961l-9.782,5.56l-21.823-7.329c-0.824-0.293-1.748-0.195-2.515,0.255
		l-34.884,20.234c-0.709,0.413-1.237,1.08-1.437,1.886c-0.213,0.783-0.078,1.63,0.334,2.335l4.085,6.855
		c-0.255,0.473-0.45,0.964-0.569,1.492c-0.431,1.709-0.155,3.46,0.749,4.971l5.302,8.722c1.18,1.965,3.339,3.161,5.62,3.161
		c1.198,0,2.377-0.314,3.397-0.94c1.513-0.903,2.554-2.34,2.986-4.048c0.413-1.71,0.156-3.476-0.766-4.99l-5.287-8.718
		c-1.199-1.946-3.339-3.166-5.638-3.166c-0.254,0-0.491,0.02-0.726,0.041l-2.299-3.849l31.015-17.992l21.807,7.324
		c0.823,0.296,1.728,0.198,2.492-0.236l12.081-6.875c0.706-0.413,1.219-1.08,1.432-1.863l3.693-13.396
		C-718.039-405.191-718.158-406.034-718.551-406.744"/>
</g>
</svg>
