<?xml version="1.0" encoding="utf-8"?>
<!-- Generator: Adobe Illustrator 16.0.0, SVG Export Plug-In . SVG Version: 6.00 Build 0)  -->
<!DOCTYPE svg PUBLIC "-//W3C//DTD SVG 1.1//EN" "http://www.w3.org/Graphics/SVG/1.1/DTD/svg11.dtd">
<svg version="1.1" id="Layer_1" xmlns="http://www.w3.org/2000/svg" xmlns:xlink="http://www.w3.org/1999/xlink" x="0px" y="0px"
	 width="128px" height="128px" viewBox="0 0 128 128" enable-background="new 0 0 128 128" xml:space="preserve">
<g id="g6206" transform="translate(1282.2339,1317.9961)">
	<path id="path6208" fill="#F7B600" d="M-1272.814-1239.693l-0.001-36.873c0-0.777,0.354-1.514,0.962-2
		c0.605-0.487,1.397-0.668,2.159-0.506c7.31,1.62,15.156,2.408,23.981,2.408c10.556,0,21.36-1.131,31.803-2.226
		c10.579-1.106,21.518-2.252,32.342-2.252c4.462,0,8.685,0.2,12.732,0.593v-3.894c-4.274-0.409-8.637-0.607-13.266-0.607
		c-10.527,0-20.497,1.019-31.05,2.096c-11.325,1.157-23.05,2.339-35.441,2.163c-5.425-0.099-15.87-1.473-28.32-3.711v51.572
		c1.348,0.23,2.715,0.43,4.099,0.604V-1239.693z"/>
</g>
<g id="g6210" transform="translate(1322.4282,1323.1357)">
	<path id="path6212" fill="#F7B600" d="M-1252.343-1252.591c-0.943,0.116-1.887,0.231-2.83,0.347v4.938
		c1.098-0.138,2.193-0.277,3.288-0.413c1.373-0.176,2.403-0.47,3.089-0.892c0.684-0.422,1.03-1.118,1.03-2.11
		c-0.002-0.984-0.361-1.594-1.089-1.815C-1249.584-1252.767-1250.748-1252.787-1252.343-1252.591"/>
</g>
<g id="g6214" transform="translate(1330.8833,1312.7803)">
	<path id="path6216" fill="#F7B600" d="M-1248.037-1226.605c-0.455,0-0.908-0.182-1.253-0.483c-0.393-0.363-0.634-0.875-0.634-1.403
		c0-0.348,0.136-0.739,0.3-1.027c0.801-1.329,4.757-8.301,4.757-16.254c0-8.559-4.559-15.878-4.741-16.165
		c-0.315-0.468-0.394-1.072-0.212-1.615c0.228-0.724,0.875-1.222,1.617-1.297c7.122-0.634,13.053-0.921,18.655-0.921
		c2.714,0,5.372,0.076,7.908,0.21c0.994,0.06,1.78,0.892,1.78,1.887c0,5.042,0.876,6.355,4.483,6.702
		c0.964,0.09,1.705,0.904,1.705,1.871v18.097c0,0.528-0.228,1.042-0.605,1.389c-0.393,0.361-0.919,0.543-1.447,0.498
		c-0.334-0.03-0.634-0.046-0.938-0.046c-1.96,0-2.354,0.649-2.535,0.952c-0.588,0.995-0.663,2.896-0.663,4.437
		c0,0.513-0.212,1.011-0.575,1.358c-0.362,0.362-0.875,0.573-1.373,0.528c-1.524-0.046-3.049-0.075-4.571-0.075
		c-6.341,0-13.146,0.422-21.447,1.343C-1247.885-1226.621-1247.963-1226.605-1248.037-1226.605 M-1276.172-1223.059
		c-8.948,1.025-15.848,1.479-22.396,1.479c-1.388,0-2.777-0.029-4.166-0.075c-1.026-0.03-1.828-0.86-1.828-1.887
		c0-5.132-0.754-6.233-4.465-6.565c-0.983-0.076-1.723-0.891-1.723-1.873v-19.197c0-0.528,0.229-1.026,0.619-1.388
		c0.393-0.362,0.922-0.528,1.449-0.485c0.303,0.032,0.588,0.047,0.862,0.047c2.021,0,3.336-0.425,3.336-6.159
		c0-0.528,0.211-1.026,0.588-1.374c0.377-0.362,0.89-0.528,1.403-0.513c7.411,0.408,15.335,0.167,26.003-0.83
		c0.545-0.029,1.059,0.136,1.449,0.483c0.393,0.361,0.621,0.86,0.621,1.403c0,0.317-0.107,0.65-0.256,0.936
		c-0.499,0.891-4.876,8.905-4.876,17.492c0,8.634,4.438,15.169,4.663,15.486c0.318,0.438,0.454,0.996,0.347,1.538
		C-1274.723-1223.753-1275.37-1223.149-1276.172-1223.059 M-1260.536-1257.427c0.783-0.087,1.565-0.177,2.346-0.264v2.85
		c0.685,0.008,1.32,0.073,1.893,0.195c1.051,0.226,1.849,0.606,2.381,1.138c0.956,0.996,1.438,2.18,1.438,3.563
		c-0.004,1.663-0.542,2.953-1.623,3.896c-0.375,0.328-0.628,0.53-0.774,0.617c-0.14,0.088-0.396,0.237-0.767,0.439
		c1.333,0.129,2.396,0.608,3.181,1.425c0.793,0.814,1.18,1.89,1.183,3.228c0,1.481-0.508,2.843-1.533,4.099
		c-1.07,1.318-2.868,2.183-5.378,2.615v2.757c-0.78,0.099-1.562,0.204-2.346,0.303v-2.738c-0.853,0.108-1.707,0.217-2.56,0.328
		c-0.002,0.915-0.002,1.829,0,2.744c-0.783,0.103-1.564,0.204-2.349,0.307v-2.749c-0.99,0.126-1.985,0.252-2.974,0.377
		c-1.314,0.167-2.624,0.328-3.936,0.485v-4.067c0.722-0.081,1.446-0.17,2.166-0.255c0.721-0.088,1.772-0.366,1.77-1.944
		c0-3.306-0.003-6.615,0-9.926c-0.003-1.572-1.049-1.602-1.77-1.523c-0.718,0.083-1.444,0.164-2.166,0.241v-4.065
		c1.312-0.138,2.622-0.283,3.936-0.431c0.989-0.112,1.986-0.224,2.974-0.338v-2.75c0.78-0.087,1.565-0.178,2.349-0.266
		c-0.002,0.917-0.002,1.829,0,2.747c0.853-0.099,1.707-0.197,2.56-0.294V-1257.427z M-1230.216-1270.795
		c-10.558,0-21.361,1.132-31.806,2.225c-10.577,1.108-21.515,2.253-32.339,2.253c-7.97,0-15.193-0.621-21.971-1.89v50.01
		c5.391,0.884,11.038,1.314,17.195,1.314c12.105,0,24.506-1.714,36.498-3.373c12.164-1.682,24.743-3.422,37.204-3.422
		c6.115,0,11.767,0.41,17.179,1.25v-46.385C-1214.989-1270.146-1222.198-1270.795-1230.216-1270.795"/>
</g>
<g id="g6218" transform="translate(1322.0806,1328.6504)">
	<path id="path6220" fill="#F7B600" d="M-1252.52-1266.429c-0.767,0.092-1.537,0.182-2.305,0.271v4.628
		c0.758-0.091,1.518-0.183,2.277-0.275c1.324-0.157,2.315-0.418,2.957-0.776c0.646-0.366,0.979-1.018,0.977-1.965
		c0-0.943-0.301-1.536-0.899-1.771C-1250.108-1266.556-1251.11-1266.594-1252.52-1266.429"/>
</g>
<g id="g6222" transform="translate(1279.5181,1347.6846)">
	<path id="path6224" fill="#555555" d="M-1274.197-1314.191c12.45,2.238,22.896,3.614,28.32,3.712
		c12.392,0.177,24.117-1.006,35.441-2.163c10.553-1.078,20.523-2.095,31.049-2.095c4.63,0,8.991,0.198,13.265,0.605v3.895
		c-4.046-0.395-8.269-0.592-12.73-0.592c-10.824,0-21.763,1.144-32.34,2.252c-10.445,1.094-21.249,2.224-31.805,2.224
		c-8.826,0-16.672-0.787-23.981-2.406c-0.762-0.165-1.554,0.017-2.159,0.506c-0.608,0.486-0.962,1.221-0.962,2l0.002,36.871v7.368
		c-1.384-0.174-2.752-0.373-4.1-0.603V-1314.191z M-1156.891-1257.331c-5.412-0.84-11.062-1.249-17.18-1.249
		c-12.46,0-25.039,1.739-37.204,3.421c-11.991,1.658-24.392,3.375-36.498,3.375c-6.154,0-11.802-0.432-17.195-1.315v-50.011
		c6.779,1.27,14.003,1.891,21.971,1.891c10.826,0,21.763-1.146,32.341-2.253c10.444-1.094,21.248-2.226,31.804-2.226
		c8.02,0,15.229,0.65,21.961,1.982V-1257.331z M-1153.771-1308.306c-2.35-0.519-4.755-0.948-7.218-1.306v-6.833
		c0-1.305-0.981-2.403-2.279-2.55c-5.194-0.588-10.468-0.875-16.118-0.875c-10.788,0-21.354,1.079-31.571,2.125
		c-11.181,1.141-22.831,2.34-34.833,2.134c-5.502-0.101-17.189-1.702-30.503-4.182c-0.749-0.141-1.521,0.061-2.108,0.548
		c-0.587,0.49-0.927,1.212-0.927,1.974v56.792c0,1.228,0.869,2.284,2.075,2.519c2.333,0.457,4.725,0.798,7.154,1.089v5.924
		c0,1.234,0.881,2.295,2.094,2.522c6.336,1.19,12.955,1.77,20.233,1.77c12.461,0,25.039-1.738,37.202-3.421
		c11.993-1.657,24.392-3.372,36.5-3.372c6.951,0,13.254,0.55,19.271,1.681c0.749,0.139,1.524-0.061,2.113-0.548
		c0.586-0.486,0.928-1.211,0.928-1.975v-51.509C-1151.76-1307.002-1152.596-1308.046-1153.771-1308.306"/>
</g>
<g id="g6226" transform="translate(1324.0728,1328.5762)">
	<path id="path6228" fill="#555555" d="M-1251.505-1266.243c0.598,0.236,0.899,0.829,0.899,1.772
		c0.004,0.946-0.33,1.596-0.977,1.963c-0.643,0.359-1.633,0.619-2.957,0.776c-0.761,0.093-1.521,0.184-2.278,0.275v-4.629
		c0.769-0.088,1.539-0.179,2.306-0.27C-1253.103-1266.521-1252.101-1266.481-1251.505-1266.243 M-1249.41-1256.161
		c0,0.99-0.349,1.689-1.031,2.11c-0.684,0.422-1.717,0.718-3.091,0.891c-1.092,0.138-2.189,0.276-3.286,0.414v-4.938
		c0.943-0.116,1.887-0.23,2.83-0.349c1.594-0.194,2.761-0.175,3.488,0.057C-1249.772-1257.756-1249.413-1257.146-1249.41-1256.161
		 M-1256.284-1272.936c-0.785,0.09-1.568,0.181-2.35,0.268v2.749c-0.987,0.115-1.983,0.228-2.974,0.339
		c-1.314,0.147-2.625,0.292-3.936,0.431v4.065c0.723-0.077,1.447-0.158,2.167-0.239c0.718-0.08,1.766-0.048,1.769,1.522
		c-0.002,3.311,0,6.62,0,9.928c0.003,1.576-1.05,1.854-1.769,1.941c-0.723,0.086-1.444,0.175-2.167,0.257v4.066
		c1.312-0.157,2.622-0.318,3.936-0.485c0.991-0.125,1.983-0.25,2.974-0.377v2.749c0.784-0.103,1.564-0.204,2.35-0.307
		c-0.003-0.915-0.003-1.829,0-2.744c0.852-0.109,1.706-0.22,2.558-0.329v2.739c0.785-0.102,1.566-0.204,2.348-0.303v-2.756
		c2.508-0.436,4.308-1.298,5.376-2.616c1.025-1.256,1.532-2.617,1.532-4.099c-0.002-1.338-0.389-2.413-1.181-3.228
		c-0.784-0.816-1.85-1.296-3.182-1.425c0.372-0.204,0.63-0.352,0.767-0.439c0.148-0.087,0.401-0.289,0.775-0.617
		c1.083-0.943,1.618-2.233,1.621-3.896c0-1.383-0.479-2.567-1.438-3.563c-0.529-0.532-1.33-0.912-2.378-1.138
		c-0.572-0.122-1.21-0.187-1.893-0.195v-2.85c-0.781,0.087-1.562,0.175-2.348,0.264v2.74c-0.852,0.099-1.706,0.197-2.558,0.296
		C-1256.287-1271.104-1256.287-1272.017-1256.284-1272.936"/>
</g>
<g id="g6230" transform="translate(1291.8325,1317.4199)">
	<path id="path6232" fill="#555555" d="M-1267.925-1238.248v-15.652c5.056-0.422,6.037-4.769,6.218-7.94
		c6.311,0.258,12.95,0.061,21.268-0.633c-1.602,3.576-3.836,9.75-3.836,16.27c0,6.188,2.085,11.76,3.819,15.08
		c-8.406,0.875-14.897,1.221-21.327,1.101C-1261.979-1233.797-1263.035-1237.223-1267.925-1238.248 M-1235.49-1229.177
		c0.107-0.545-0.03-1.104-0.348-1.542c-0.226-0.316-4.663-6.852-4.663-15.485c0-8.586,4.377-16.602,4.875-17.491
		c0.151-0.288,0.256-0.62,0.256-0.935c0-0.544-0.227-1.043-0.619-1.404c-0.391-0.349-0.903-0.513-1.448-0.482
		c-10.67,0.995-18.594,1.237-26.005,0.828c-0.513-0.013-1.026,0.153-1.403,0.514c-0.377,0.348-0.59,0.847-0.59,1.373
		c0,5.735-1.313,6.158-3.335,6.158c-0.272,0-0.559-0.014-0.861-0.046c-0.527-0.043-1.057,0.122-1.449,0.483
		c-0.392,0.363-0.618,0.862-0.618,1.389v19.197c0,0.981,0.74,1.799,1.722,1.871c3.712,0.334,4.467,1.437,4.467,6.568
		c0,1.025,0.8,1.854,1.828,1.887c1.387,0.043,2.775,0.075,4.164,0.075c6.55,0,13.448-0.453,22.397-1.481
		C-1236.32-1227.789-1235.672-1228.395-1235.49-1229.177"/>
</g>
<g id="g6234" transform="translate(1301.1118,1324.3564)">
	<path id="path6236" fill="#FFD717" d="M-1263.2-1255.654c1.503-0.026,2.725,1.17,2.728,2.695c0,1.528-1.224,2.813-2.728,2.846
		c-1.5,0.028-2.718-1.215-2.721-2.746C-1265.921-1254.393-1264.703-1255.628-1263.2-1255.654 M-1249.735-1238.062
		c-1.736-3.32-3.818-8.89-3.818-15.078c0-6.52,2.233-12.693,3.835-16.271c-8.318,0.694-14.958,0.893-21.267,0.634
		c-0.182,3.169-1.164,7.516-6.219,7.939v15.653c4.89,1.024,5.946,4.45,6.143,8.224
		C-1264.632-1236.839-1258.14-1237.187-1249.735-1238.062"/>
</g>
<g id="g6238" transform="translate(1335.4829,1325.4805)">
	<path id="path6240" fill="#555555" d="M-1245.695-1258.474c0-6.384-2.233-12.181-3.908-15.562
		c8.224-0.649,14.971-0.814,21.416-0.543c0.196,3.713,1.253,7.29,6.144,8.392v14.58c-2.308,0.165-3.986,1.087-4.997,2.762
		c-0.755,1.268-1.04,2.822-1.132,4.437c-6.488-0.136-13.101,0.166-21.145,0.966
		C-1247.745-1246.823-1245.695-1252.377-1245.695-1258.474 M-1230.979-1240.664c1.524,0,3.049,0.029,4.571,0.076
		c0.499,0.044,1.012-0.167,1.374-0.529c0.363-0.347,0.575-0.846,0.575-1.357c0-1.541,0.075-3.442,0.664-4.439
		c0.181-0.302,0.575-0.95,2.534-0.95c0.305,0,0.604,0.016,0.938,0.047c0.527,0.044,1.055-0.138,1.448-0.499
		c0.377-0.347,0.604-0.861,0.604-1.387v-18.099c0-0.965-0.741-1.78-1.706-1.871c-3.607-0.346-4.482-1.66-4.482-6.701
		c0-0.996-0.785-1.826-1.779-1.886c-2.537-0.136-5.195-0.211-7.911-0.211c-5.601,0-11.53,0.287-18.654,0.92
		c-0.739,0.075-1.389,0.574-1.614,1.298c-0.182,0.543-0.106,1.147,0.21,1.615c0.182,0.287,4.739,7.606,4.739,16.165
		c0,7.954-3.954,14.927-4.754,16.255c-0.166,0.286-0.302,0.679-0.302,1.026c0,0.528,0.243,1.041,0.635,1.403
		c0.347,0.302,0.799,0.483,1.252,0.483c0.074,0,0.15-0.016,0.211-0.016C-1244.125-1240.242-1237.318-1240.664-1230.979-1240.664"/>
</g>
<g id="g6242" transform="translate(1342.6724,1327.4424)">
	<path id="path6244" fill="#FFD717" d="M-1242.033-1263.398c1.5-0.026,2.724,1.169,2.724,2.696c0.004,1.528-1.224,2.813-2.724,2.845
		c-1.503,0.028-2.722-1.214-2.722-2.746C-1244.757-1262.136-1243.536-1263.372-1242.033-1263.398 M-1235.362-1246.37
		c0.091-1.614,0.377-3.169,1.132-4.437c1.012-1.676,2.688-2.597,4.996-2.762v-14.58c-4.89-1.103-5.945-4.679-6.144-8.392
		c-6.442-0.271-13.191-0.106-21.414,0.543c1.673,3.381,3.908,9.176,3.908,15.562c0,6.097-2.053,11.65-3.624,15.031
		C-1248.462-1246.204-1241.85-1246.506-1235.362-1246.37"/>
</g>
<g id="g6246" transform="translate(1301.1118,1320.6855)">
	<path id="path6248" fill="#555555" d="M-1263.2-1246.442c1.503-0.032,2.728-1.317,2.728-2.846
		c-0.002-1.525-1.224-2.722-2.728-2.695s-2.721,1.262-2.721,2.793C-1265.917-1247.657-1264.699-1246.412-1263.2-1246.442"/>
</g>
<g id="g6250" transform="translate(1342.6724,1323.7715)">
	<path id="path6252" fill="#555555" d="M-1242.033-1254.187c1.5-0.031,2.728-1.316,2.724-2.845c0-1.526-1.224-2.722-2.724-2.696
		c-1.503,0.026-2.725,1.262-2.722,2.793C-1244.754-1255.4-1243.536-1254.155-1242.033-1254.187"/>
</g>
</svg>
