<?xml version="1.0" encoding="UTF-8" standalone="no"?>
<svg
   xmlns:dc="http://purl.org/dc/elements/1.1/"
   xmlns:cc="http://creativecommons.org/ns#"
   xmlns:rdf="http://www.w3.org/1999/02/22-rdf-syntax-ns#"
   xmlns:svg="http://www.w3.org/2000/svg"
   xmlns="http://www.w3.org/2000/svg"
   xmlns:sodipodi="http://sodipodi.sourceforge.net/DTD/sodipodi-0.dtd"
   xmlns:inkscape="http://www.inkscape.org/namespaces/inkscape"
   version="1.1"
   x="0px"
   y="0px"
   width="1000px"
   height="1000px"
   viewBox="0 0 1000 1000"
   enable-background="new 0 0 1000 1000"
   xml:space="preserve"
   id="svg2"
   inkscape:version="0.48.3.1 r9886"
   sodipodi:docname="logo.svg"><metadata
     id="metadata14"><rdf:RDF><cc:Work
         rdf:about=""><dc:format>image/svg+xml</dc:format><dc:type
           rdf:resource="http://purl.org/dc/dcmitype/StillImage" /></cc:Work></rdf:RDF></metadata><defs
     id="defs12" /><sodipodi:namedview
     pagecolor="#ffffff"
     bordercolor="#666666"
     borderopacity="1"
     objecttolerance="10"
     gridtolerance="10"
     guidetolerance="10"
     inkscape:pageopacity="0"
     inkscape:pageshadow="2"
     inkscape:window-width="1366"
     inkscape:window-height="681"
     id="namedview10"
     showgrid="false"
     inkscape:zoom="0.236"
     inkscape:cx="-305.08475"
     inkscape:cy="500"
     inkscape:window-x="0"
     inkscape:window-y="27"
     inkscape:window-maximized="1"
     inkscape:current-layer="svg2" /><g
     id="g4"
     transform="matrix(2.2204171,0,0,2.2204171,-608.0899,-627.75326)"
     style="fill:#ffffff;fill-opacity:1"><g
       id="g6"
       style="fill:#ffffff;fill-opacity:1"><path
         clip-rule="evenodd"
         d="m 500,393 c -25.958,0 -47,21.042 -47,47 0,25.958 21.042,47 47,47 25.957,0 47,-21.042 47,-47 0,-25.958 -21.043,-47 -47,-47 z m 0,68 c -11.598,0 -21,-9.402 -21,-21 0,-11.598 9.402,-21 21,-21 11.598,0 21,9.402 21,21 0,11.598 -9.402,21 -21,21 z M 283,313 500,689 717,313 H 283 z m 217,195 c -57.604,0 -96,-68 -96,-68 0,0 38.396,-67 96,-67 57.605,0 96,67 96,67 0,0 -38.395,68 -96,68 z"
         id="path8"
         inkscape:connector-curvature="0"
         style="fill:#ffffff;fill-rule:evenodd;fill-opacity:1" /></g></g></svg>