<?xml version="1.0" encoding="utf-8"?>
<!-- Generator: Adobe Illustrator 16.0.0, SVG Export Plug-In . SVG Version: 6.00 Build 0)  -->
<!DOCTYPE svg PUBLIC "-//W3C//DTD SVG 1.1//EN" "http://www.w3.org/Graphics/SVG/1.1/DTD/svg11.dtd">
<svg version="1.1" id="Layer_1" xmlns="http://www.w3.org/2000/svg" xmlns:xlink="http://www.w3.org/1999/xlink" x="0px" y="0px"
	 width="128px" height="128px" viewBox="0 0 128 128" enable-background="new 0 0 128 128" xml:space="preserve">
<g id="g8680" transform="translate(956.0376,780.291)" opacity="0.3">
	<path id="path8682" fill="#555555" d="M-891.909-717.849h2.169c0.558,0,1.058-0.02,1.525-0.056c1.199-0.07,2.132-0.269,2.796-0.553
		c0.949-0.43,1.416-1.327,1.416-2.726c0-0.431-0.036-0.808-0.126-1.147c-0.18-0.773-0.571-1.308-1.184-1.614
		c-0.628-0.322-1.613-0.539-2.902-0.647c-0.448-0.018-0.952-0.036-1.49-0.036h-3.369v6.383v0.396h0.698H-891.909z"/>
</g>
<g id="g8684" transform="translate(960.5376,776.8115)" opacity="0.3">
	<path id="path8686" fill="#555555" d="M-888.341-708.132c-0.949-0.41-2.402-0.645-4.373-0.682
		c-0.235-0.018-0.468-0.018-0.719-0.018h-0.52h-3.621v1.023v1.059v5.145h4.859c1.989,0,3.477-0.252,4.463-0.738
		c0.02-0.016,0.053-0.016,0.071-0.035c0.951-0.52,1.435-1.469,1.435-2.883C-886.746-706.716-887.264-707.683-888.341-708.132"/>
</g>
<g id="g8688" transform="translate(961.0981,752.3516)" opacity="0.3">
	<path id="path8690" fill="#555555" d="M-887.896-639.818c-1.184-2.045-3.086-3.621-5.379-4.355v-17.912h8.21v-4.768
		c2.742-0.754,4.949-2.047,6.561-3.873c0.254-0.287,0.486-0.576,0.72-0.861l18.016,10.418c-0.143,0.645-0.214,1.326-0.214,2.006
		c0,1.021,0.161,2.027,0.448,2.957L-887.896-639.818z M-892.165-634.922c0,2.275-1.845,4.141-4.124,4.141
		c-2.275,0-4.141-1.865-4.141-4.141c0-0.752,0.216-1.471,0.593-2.096c0.143-0.271,0.322-0.506,0.538-0.738
		c0.752-0.789,1.827-1.291,3.01-1.291c1.183,0,2.241,0.502,3.014,1.291c0.194,0.232,0.394,0.467,0.538,0.738
		C-892.378-636.393-892.165-635.674-892.165-634.922 M-934.693-661.17l18.683-10.795v5.863h10.093v4.016h6.618v17.896
		c-2.297,0.75-4.213,2.326-5.378,4.371l-30.016-17.318c0.145-0.662,0.217-1.328,0.217-2.027
		C-934.476-659.844-934.549-660.525-934.693-661.17 M-903.029-734.788c1.041,1.022,2.314,1.793,3.73,2.261v20.779h-6.618v4.016
		h-10.093v7.082l-18.521-10.704c0.038-0.322,0.056-0.644,0.056-0.965c0-1.383-0.289-2.674-0.808-3.858L-903.029-734.788z
		 M-896.289-745.921c1.669,0,3.104,1.004,3.747,2.439c0.254,0.521,0.377,1.094,0.377,1.703c0,1.094-0.429,2.08-1.109,2.832
		c-0.469,0.468-1.022,0.843-1.651,1.058c-0.429,0.144-0.877,0.234-1.363,0.234c-0.482,0-0.93-0.09-1.361-0.234
		c-0.628-0.214-1.201-0.59-1.649-1.058c-0.699-0.752-1.13-1.738-1.13-2.832c0-0.609,0.125-1.182,0.377-1.703
		C-899.409-744.917-897.955-745.921-896.289-745.921 M-858.762-717.022c-0.789,1.402-1.221,2.995-1.221,4.702
		c0,0.337,0.018,0.676,0.056,1.02l-18.433,10.634c-0.466-0.881-1.074-1.741-1.775-2.547c-1.22-1.364-2.885-2.441-4.93-3.229v-5.307
		h-8.21v-20.799c1.416-0.448,2.689-1.235,3.728-2.241L-858.762-717.022z M-877.946-688.243c-0.038-0.035-0.072-0.092-0.11-0.126
		c0.896-1.721,1.345-3.712,1.345-5.936c0-0.106,0-0.231-0.017-0.339l19.29-11.134c1.526,1.685,3.642,2.851,6.043,3.119v33.833
		c-2.043,0.232-3.907,1.109-5.361,2.438l-18.5-10.703c0.215-0.914,0.304-1.865,0.304-2.832
		C-874.953-683.17-875.958-685.967-877.946-688.243 M-882.285-674.188c0,0.02-0.02,0.035-0.038,0.053
		c-1.561,1.76-4.193,2.727-7.853,2.889v4.051h-3.1h-0.342v-4.016h-3.747v4.016h-1.936h-1.489v-4.016H-910.9v-3.693v-2.24h3.171
		c0.252,0,0.504-0.02,0.772-0.055l0.038-0.016c0.501-0.074,1.001-0.289,1.345-0.773c0.269-0.377,0.43-0.914,0.43-1.686v-5.523
		v-2.204v-6.761c0-0.07,0-0.143-0.02-0.213c-0.089-2.113-1.541-2.313-2.564-2.313h-1.432l-1.74-1.002v-4.93h10.112v-4.017h1.489
		h1.936v4.017h3.747v-4.017h0.342h3.1v4.195c1.006,0.127,1.921,0.322,2.763,0.591c1.542,0.503,2.706,1.202,3.478,2.062
		c0.467,0.538,0.858,1.094,1.164,1.687c0.504,0.932,0.809,1.92,0.896,2.96c0.038,0.268,0.056,0.553,0.056,0.839
		c0,1.077-0.161,2.028-0.466,2.87c-0.396,1.079-1.04,1.937-1.919,2.618c-0.538,0.412-0.913,0.68-1.129,0.77
		c-0.199,0.108-0.592,0.287-1.112,0.523c1.937,0.428,3.479,1.307,4.642,2.631c1.15,1.328,1.722,2.994,1.722,4.969v0.053
		C-880.097-677.721-880.817-675.818-882.285-674.188 M-850.266-716.446c0.287,0,0.559,0.035,0.824,0.092
		c1.886,0.374,3.32,2.041,3.32,4.034c0,2.274-1.866,4.119-4.145,4.119c-0.393,0-0.77-0.052-1.129-0.16
		c-0.321-0.088-0.627-0.216-0.912-0.395c-0.915-0.52-1.597-1.361-1.901-2.366c-0.126-0.377-0.182-0.789-0.182-1.199
		c0-0.684,0.162-1.33,0.467-1.904c0.182-0.337,0.396-0.643,0.663-0.931h0.019c0.52-0.575,1.22-0.986,2.007-1.166
		c0.021-0.018,0.021-0.018,0.038-0.018C-850.891-716.411-850.587-716.446-850.266-716.446 M-941.2-703.069
		c1.647-0.539,3.082-1.488,4.212-2.747l20.977,12.14v2.098h3.642l2.114,1.222l-0.017,8.101h-5.738v3.334l-21.693,12.533
		c-1.005-0.914-2.186-1.594-3.496-2.025V-703.069z M-947.244-715.136c0.754-0.807,1.849-1.31,3.033-1.31
		c0.394,0,0.787,0.055,1.146,0.161c0.666,0.197,1.256,0.538,1.738,1.004c0.02,0.019,0.02,0.019,0.038,0.037
		c0.52,0.521,0.896,1.184,1.074,1.917c0.09,0.324,0.127,0.664,0.127,1.007c0,1.109-0.433,2.095-1.112,2.832
		c-0.27,0.268-0.576,0.518-0.915,0.716c-0.629,0.358-1.345,0.571-2.097,0.571c-1.184,0-2.279-0.5-3.033-1.307
		c-0.679-0.734-1.111-1.722-1.111-2.812C-948.354-713.417-947.923-714.402-947.244-715.136 M-943.296-655.147
		c-0.29,0.072-0.592,0.107-0.915,0.107c-2.279,0-4.144-1.846-4.144-4.125c0-1.076,0.432-2.08,1.111-2.812
		c0.754-0.811,1.849-1.311,3.033-1.311c0.322,0,0.625,0.037,0.93,0.109c0.808,0.178,1.525,0.611,2.081,1.182
		c0.216,0.232,0.393,0.502,0.555,0.773c0.163,0.266,0.286,0.553,0.378,0.859c0.108,0.375,0.179,0.789,0.179,1.199
		c0,0.412-0.071,0.826-0.179,1.203v0.02C-940.697-656.545-941.865-655.469-943.296-655.147 M-847.289-656.313
		c-0.502,0.537-1.184,0.951-1.937,1.131c0,0.014-0.033,0.014-0.033,0.014c-0.325,0.094-0.664,0.129-1.007,0.129
		c-1.827,0-3.404-1.219-3.942-2.902v-0.02c-0.108-0.377-0.182-0.791-0.182-1.203v-0.018c0-1.883,1.273-3.459,2.995-3.943
		l0.215-0.053c0.289-0.072,0.593-0.109,0.914-0.109c2.278,0,4.145,1.846,4.145,4.123c0,1.096-0.432,2.1-1.15,2.852H-847.289z
		 M-845.353-667.555v-36.376c2.889-1.687,4.824-4.824,4.824-8.389c0-5.363-4.359-9.738-9.737-9.738
		c-1.345,0-2.634,0.287-3.818,0.789l-32.631-18.841c0.109-0.541,0.164-1.097,0.164-1.669c0-5.379-4.376-9.736-9.738-9.736
		c-5.379,0-9.733,4.357-9.733,9.736c0,0.573,0.053,1.129,0.16,1.669l-33.527,19.342h-0.017c-1.417-0.822-3.066-1.29-4.804-1.29
		c-5.379,0-9.738,4.375-9.738,9.738c0,4.3,2.815,7.976,6.705,9.25v34.655c-3.89,1.273-6.705,4.951-6.705,9.25
		c0,5.361,4.359,9.738,9.738,9.738c2.474,0,4.748-0.953,6.489-2.494l31.804,18.342c0.647,4.752,4.698,8.391,9.628,8.391
		c4.914,0,8.983-3.639,9.626-8.391l30.696-17.715c1.595,1.166,3.586,1.867,5.7,1.867c5.378,0,9.737-4.377,9.737-9.738
		C-840.529-662.729-842.464-665.867-845.353-667.555"/>
</g>
</svg>
