<?xml version="1.0" encoding="utf-8"?>
<!-- Generator: Adobe Illustrator 16.0.0, SVG Export Plug-In . SVG Version: 6.00 Build 0)  -->
<!DOCTYPE svg PUBLIC "-//W3C//DTD SVG 1.1//EN" "http://www.w3.org/Graphics/SVG/1.1/DTD/svg11.dtd">
<svg version="1.1" id="Layer_1" xmlns="http://www.w3.org/2000/svg" xmlns:xlink="http://www.w3.org/1999/xlink" x="0px" y="0px"
	 width="128px" height="128px" viewBox="0 0 128 128" enable-background="new 0 0 128 128" xml:space="preserve">
<g id="g6434" transform="translate(1938.27,1334.293)">
	<path id="path6436" fill="#555555" d="M-1862.084-1261.605c-1.862-0.512-2.959-2.438-2.446-4.305
		c0.508-1.858,2.438-2.961,4.3-2.442c1.86,0.507,2.956,2.435,2.445,4.299C-1858.293-1262.192-1860.218-1261.095-1862.084-1261.605
		 M-1902.172-1231.528c0.299,0.492,0.385,1.074,0.25,1.64c-0.139,0.561-0.486,1.031-0.976,1.329
		c-0.342,0.204-0.727,0.312-1.116,0.312c-0.762,0-1.455-0.39-1.849-1.04l-5.307-8.752c-0.619-1.021-0.294-2.352,0.723-2.97
		c0.34-0.205,0.729-0.312,1.12-0.312c0.765,0,1.457,0.388,1.851,1.037L-1902.172-1231.528z M-1919.293-1222.126
		c0.297,0.494,0.388,1.076,0.252,1.634c-0.14,0.56-0.485,1.032-0.976,1.33c-0.34,0.207-0.728,0.315-1.121,0.315
		c-0.762,0-1.452-0.388-1.846-1.039l-5.305-8.756c-0.3-0.494-0.391-1.076-0.254-1.635c0.14-0.561,0.487-1.033,0.979-1.332
		c0.334-0.205,0.722-0.314,1.113-0.314c0.767,0,1.458,0.392,1.853,1.043L-1919.293-1222.126z M-1810.851-1296.757l-12.072-21.208
		c-0.403-0.708-1.073-1.229-1.859-1.443l-23.537-6.458c-0.795-0.22-1.628-0.112-2.338,0.292l-21.203,12.07
		c-0.713,0.403-1.234,1.073-1.447,1.861l-5.297,19.303l-54.587,33.452c-0.645,0.4-1.125,1.022-1.344,1.752l-3.428,11.57
		c-0.239,0.804-0.134,1.672,0.282,2.4l5.67,9.918c-0.369,0.589-0.668,1.224-0.837,1.916c-0.419,1.714-0.145,3.484,0.765,4.987
		l5.306,8.755c1.204,1.991,3.316,3.18,5.644,3.18c1.204,0,2.385-0.333,3.419-0.959c3.105-1.886,4.101-5.95,2.218-9.056l-5.307-8.756
		c-1.206-1.991-3.316-3.178-5.643-3.178c-0.082,0-0.164,0.014-0.243,0.019l-4.996-8.739l2.722-9.177l10.79-6.611l-0.379,8.769
		c-0.023,0.503,0.082,1.011,0.304,1.469l3.638,7.537c-1.544,2.091-1.78,4.993-0.353,7.352l5.307,8.748
		c1.184,1.965,3.349,3.181,5.644,3.181c1.203,0,2.385-0.331,3.41-0.956c1.509-0.913,2.571-2.355,2.99-4.067
		c0.42-1.709,0.151-3.484-0.762-4.991l-5.307-8.759c-1.158-1.901-3.151-3.047-5.362-3.137l-3.324-6.889l0.528-12.139l37.492-22.975
		c0.667-0.413,1.153-1.059,1.361-1.813l5.279-19.248l18.989-10.808l21.075,5.781l10.811,18.994l-5.784,21.069l-18.986,10.813
		l-12.186-3.343c-0.491-2.764-2.495-5.148-5.378-5.943c-0.652-0.18-1.317-0.271-1.99-0.271c-3.37,0-6.345,2.27-7.234,5.521
		c-1.097,3.993,1.258,8.129,5.253,9.231c0.645,0.177,1.313,0.266,1.982,0.266c2.327,0,4.448-1.101,5.842-2.839l13.308,3.655
		c0.787,0.214,1.631,0.113,2.344-0.299l21.203-12.07c0.708-0.403,1.229-1.073,1.444-1.861l6.457-23.528
		C-1810.342-1295.206-1810.448-1296.049-1810.851-1296.757"/>
</g>
<g id="g6438" transform="translate(1925.9243,1323.2725)">
	<path id="path6440" fill="#555555" d="M-1874.068-1228.868c-0.137,0.56-0.485,1.03-0.975,1.327
		c-0.343,0.208-0.73,0.319-1.121,0.319c-0.762,0-1.452-0.39-1.846-1.041l-5.307-8.754c-0.298-0.493-0.388-1.075-0.249-1.639
		c0.137-0.559,0.486-1.031,0.979-1.333c0.334-0.203,0.717-0.312,1.107-0.312c0.767,0,1.458,0.392,1.857,1.046l5.304,8.755
		C-1874.019-1230.006-1873.932-1229.425-1874.068-1228.868 M-1832.229-1283.103c1.875,0.514,2.978,2.456,2.464,4.331
		c-0.513,1.875-2.453,2.978-4.331,2.468c-1.872-0.519-2.975-2.458-2.464-4.335
		C-1836.045-1282.513-1834.102-1283.618-1832.229-1283.103 M-1875.831-1241.554c-1.189-1.965-3.355-3.181-5.647-3.181
		c-0.243,0-0.485,0.024-0.725,0.052l-2.31-3.872l31.104-18.042l21.884,7.348c0.825,0.282,1.741,0.189,2.502-0.242l12.119-6.897
		c0.71-0.405,1.23-1.075,1.445-1.863l3.687-13.45c0.218-0.784,0.112-1.627-0.291-2.335l-6.897-12.121
		c-0.405-0.707-1.073-1.227-1.858-1.442l-13.45-3.695c-0.812-0.218-1.669-0.104-2.394,0.328l-10.059,6.007
		c-0.679,0.408-1.175,1.055-1.389,1.818l-2.291,8.238c-0.449,1.615,0.475,3.292,2.079,3.772l7.718,2.32
		c0.358,2.934,2.436,5.513,5.461,6.352c0.646,0.174,1.312,0.263,1.979,0.263c3.373,0,6.349-2.272,7.24-5.521
		c1.097-3.99-1.258-8.132-5.247-9.229c-0.652-0.18-1.32-0.268-1.992-0.268c-2.189,0-4.201,0.97-5.593,2.533l-4.902-1.475
		l1.153-4.146l7.873-4.708l10.95,3.011l5.638,9.898l-3.015,10.993l-9.814,5.586l-21.895-7.355c-0.839-0.286-1.759-0.189-2.528,0.254
		l-35.002,20.304c-0.711,0.411-1.227,1.091-1.435,1.889c-0.207,0.796-0.086,1.645,0.335,2.351l4.106,6.883
		c-0.246,0.469-0.456,0.957-0.585,1.485c-0.419,1.714-0.149,3.484,0.765,4.996l5.307,8.746c1.188,1.963,3.347,3.183,5.644,3.183
		c1.201,0,2.383-0.331,3.41-0.955c1.507-0.911,2.568-2.356,2.99-4.064c0.42-1.713,0.152-3.487-0.762-4.992L-1875.831-1241.554z"/>
</g>
<g id="g6442" transform="translate(1944.9585,1349.543)">
	<path id="path6444" fill="#FFD717" d="M-1855.592-1306.908c-0.513,1.875,0.591,3.816,2.463,4.333
		c1.879,0.511,3.817-0.593,4.33-2.467c0.514-1.876-0.59-3.815-2.464-4.329C-1853.136-1309.891-1855.078-1308.784-1855.592-1306.908"
		/>
</g>
<g id="g6446" transform="translate(1906.5483,1318.7012)">
	<path id="path6448" fill="#FFD717" d="M-1892.875-1215.288c-0.395-0.653-1.087-1.041-1.852-1.041c-0.395,0-0.779,0.106-1.113,0.311
		c-0.493,0.301-0.842,0.773-0.979,1.335c-0.137,0.558-0.046,1.14,0.252,1.634l5.304,8.756c0.396,0.651,1.085,1.039,1.849,1.039
		c0.391,0,0.777-0.109,1.119-0.315c0.491-0.298,0.837-0.769,0.975-1.33c0.139-0.558,0.048-1.14-0.252-1.634L-1892.875-1215.288z"/>
</g>
<g id="g6450" transform="translate(1940.4517,1335.5352)">
	<path id="path6452" fill="#FFD717" d="M-1859.967-1265.296c0.513-1.864-0.585-3.792-2.443-4.299
		c-1.864-0.517-3.794,0.584-4.303,2.443c-0.512,1.866,0.585,3.792,2.446,4.302
		C-1862.4-1262.337-1860.475-1263.435-1859.967-1265.296"/>
</g>
<g id="g6454" transform="translate(1923.105,1328.543)">
	<path id="path6456" fill="#FFD717" d="M-1876.806-1244.524c-0.396-0.654-1.088-1.045-1.854-1.045c-0.393,0-0.774,0.105-1.108,0.311
		c-0.493,0.301-0.842,0.774-0.981,1.335c-0.135,0.563-0.047,1.146,0.251,1.638l5.307,8.751c0.396,0.653,1.084,1.041,1.846,1.041
		c0.391,0,0.776-0.107,1.12-0.317c0.491-0.295,0.837-0.767,0.976-1.327c0.14-0.559,0.051-1.138-0.251-1.633L-1876.806-1244.524z"/>
</g>
<g id="g6458" transform="translate(1915.2358,1323.4727)">
	<path id="path6460" fill="#FFD717" d="M-1884.443-1229.462c-0.394-0.651-1.085-1.039-1.849-1.039c-0.391,0-0.781,0.105-1.121,0.312
		c-1.014,0.617-1.342,1.949-0.723,2.97l5.307,8.752c0.397,0.65,1.087,1.038,1.849,1.038c0.39,0,0.774-0.106,1.116-0.312
		c0.49-0.296,0.837-0.767,0.976-1.329c0.139-0.564,0.049-1.146-0.25-1.64L-1884.443-1229.462z"/>
</g>
</svg>
