<?xml version="1.0" encoding="utf-8"?>
<!-- Generator: Adobe Illustrator 16.0.0, SVG Export Plug-In . SVG Version: 6.00 Build 0)  -->
<!DOCTYPE svg PUBLIC "-//W3C//DTD SVG 1.1//EN" "http://www.w3.org/Graphics/SVG/1.1/DTD/svg11.dtd">
<svg version="1.1" id="Layer_1" xmlns="http://www.w3.org/2000/svg" xmlns:xlink="http://www.w3.org/1999/xlink" x="0px" y="0px"
	 width="128px" height="128px" viewBox="0 0 128 128" enable-background="new 0 0 128 128" xml:space="preserve">
<g id="g9612" transform="translate(759.1177,349.7109)" opacity="0.1">
	<path id="path9614" fill="#B3B3B3" d="M-659.997-296.769c-0.019,0.207-0.038,0.434-0.076,0.644
		c-0.302,2.362-1.418,4.438-3.326,6.251c-2.041,1.932-4.479,2.989-7.275,3.161c-2.079,0.112-4.141-0.473-6.182-1.797l-2.891,2.742
		l-10.679-11.321l2.532-2.381l-5.65-5.995l9.071-8.56l3.214,3.403l6.974-6.58l-3.232-3.419l9.092-8.561l5.65,5.973l2.532-2.382
		l10.682,11.322l-3.179,3.005c0.757,1.72,1.04,3.381,0.87,4.949c-0.36,2.722-1.512,5.01-3.46,6.844
		C-656.955-297.924-658.579-297.129-659.997-296.769 M-632.138-345.191c-39.521-5.593-67.322,35.836-67.322,35.836
		c-23.625-2.704-38.876,22.642-40.596,30.39c15.233-10.225,27.801-8.486,27.801-8.486l-6.653,13.042l15.915,16.065l13.041-6.635
		c0,0,3.703,10.584-6.539,25.837c7.768-1.72,31.146-15.01,28.425-38.635C-668.067-277.776-623.917-306.012-632.138-345.191"/>
</g>
<g id="g9616" transform="translate(757.8481,354.4023)" opacity="0.1">
	<path id="path9618" fill="#B3B3B3" d="M-661.126-310.326c-0.89,0.815-1.72,1.076-2.515,0.773c-0.792-0.301-1.737-1.036-2.815-2.191
		l-1.873-1.983l4.271-4.027l1.891,1.985c1.155,1.229,1.835,2.231,2.042,3.024C-659.916-311.969-660.258-311.156-661.126-310.326
		 M-668.008-301.895c-0.905,0.866-1.796,1.15-2.665,0.848c-0.888-0.302-1.87-1.037-3.006-2.229l-2.682-2.853l4.557-4.309
		l2.303,2.456c1.325,1.38,2.118,2.532,2.422,3.442C-666.779-303.634-667.08-302.766-668.008-301.895 M-657.782-318.603l-2.1-2.21
		l2.535-2.399l-1.931-2.041l-2.53,2.398l-2.438-2.568l-3.216-3.423l-3.74,3.532l1.774,1.874c0.589,0.623,1.325,1.663-0.13,3.041
		l-9.149,8.618c-1.437,1.382-2.438,0.588-3.021-0.035l-1.779-1.872l-3.723,3.514l3.215,3.423l2.438,2.569l-2.532,2.4l1.909,2.044
		l2.531-2.404l2.099,2.234l-2.533,2.379l1.927,2.043l2.552-2.423c2.156,2.079,4.233,3.063,6.218,2.95
		c1.891-0.115,3.534-0.812,4.916-2.114c1.227-1.174,1.965-2.497,2.152-3.991c0.19-1.473-0.13-2.909-0.945-4.309
		c0.457,0.171,0.776,0.303,0.945,0.36c0.19,0.055,0.567,0.112,1.136,0.186c1.643,0.229,3.232-0.394,4.781-1.849
		c1.265-1.211,2.04-2.705,2.268-4.518c0.115-0.964-0.094-2.06-0.641-3.289c-0.305-0.642-0.701-1.322-1.174-1.986l2.626-2.492
		l-1.908-2.023L-657.782-318.603z"/>
</g>
<g id="g9620" transform="translate(729.1304,330.5859)" opacity="0.1">
	<path id="path9622" fill="#B3B3B3" d="M-686.685-241.498l-9.404,3.519l3.423-8.561l-31.629,18.338l13.336,0.574l-17.998,19.999
		l26.55-11.575l-2.143,12.633l21.968-28.191l-10.187,1.441L-686.685-241.498z"/>
</g>
</svg>
