<?xml version="1.0" encoding="UTF-8" standalone="no"?>
<!-- Created with Inkscape (http://www.inkscape.org/) -->

<svg
   xmlns:dc="http://purl.org/dc/elements/1.1/"
   xmlns:cc="http://creativecommons.org/ns#"
   xmlns:rdf="http://www.w3.org/1999/02/22-rdf-syntax-ns#"
   xmlns:svg="http://www.w3.org/2000/svg"
   xmlns="http://www.w3.org/2000/svg"
   xmlns:sodipodi="http://sodipodi.sourceforge.net/DTD/sodipodi-0.dtd"
   xmlns:inkscape="http://www.inkscape.org/namespaces/inkscape"
   width="210mm"
   height="297mm"
   id="svg2"
   version="1.1"
   inkscape:version="0.48.3.1 r9886"
   sodipodi:docname="virtual.svg">
  <defs
     id="defs4" />
  <sodipodi:namedview
     id="base"
     pagecolor="#ffffff"
     bordercolor="#666666"
     borderopacity="1.0"
     inkscape:pageopacity="0.0"
     inkscape:pageshadow="2"
     inkscape:zoom="0.7866496"
     inkscape:cx="373.78559"
     inkscape:cy="674.79505"
     inkscape:document-units="px"
     inkscape:current-layer="layer1"
     showgrid="false"
     inkscape:window-width="1366"
     inkscape:window-height="681"
     inkscape:window-x="0"
     inkscape:window-y="27"
     inkscape:window-maximized="1" />
  <metadata
     id="metadata7">
    <rdf:RDF>
      <cc:Work
         rdf:about="">
        <dc:format>image/svg+xml</dc:format>
        <dc:type
           rdf:resource="http://purl.org/dc/dcmitype/StillImage" />
        <dc:title></dc:title>
      </cc:Work>
    </rdf:RDF>
  </metadata>
  <g
     inkscape:label="Capa 1"
     inkscape:groupmode="layer"
     id="layer1">
    <path
       style="fill:#000000;fill-opacity:1"
       d="m 339.85513,615.38243 c -26.71794,-3.23418 -44.30898,-10.12959 -65.64229,-17.68063 -20.47783,-7.23942 -52.96188,-25.91746 -71.1125,-40.88904 -15.43296,-12.7299 -40.36775,-38.28982 -40.36775,-41.3798 l 73.13881,-54.10629 c 16.23364,19.4377 27.74909,29.34247 44.36093,37.60591 l -75.70381,-96.68634 c 12.61311,37.78654 12.39169,34.94407 23.85799,49.10402 L 154.327,505.23092 C 148.21565,495.37884 134.40871,474.00185 131.36565,467.90543 95.475288,395.96116 90.445258,338.81389 115.42207,255.23731 l 3.35564,-12.38749 -34.395712,-68.66274 79.402902,-1.02889 15.54951,-16.81429 c 53.37198,-54.70327 131.94078,-85.717727 173.49044,-85.033637 12.29358,-1.05165 15.83634,-0.99839 16.60123,0.24953 l 1.5497,92.962857 c -13.83565,0.43048 -35.75748,5.82658 -42.28261,8.40625 l 100.45832,-0.59801 c -20.1033,-5.91561 -36.37003,-7.0938 -47.49217,-7.92735 l -1.22205,-92.917607 c 11.07979,-0.59558 15.19838,-0.76979 21.33655,-0.16333 49.32264,4.99117 94.51765,21.79072 132.51339,49.256887 14.47839,10.46605 20.63498,15.88794 38.92072,34.27592 l 16.83038,16.92449 73.15088,0.44724 -32.89765,70.82242 4.81442,14.89057 c 4.30881,13.32651 6.23233,21.48987 11.26052,47.78994 0.8014,4.19158 1.79023,17.33791 2.1976,29.21405 1.42633,41.59205 -6.3206,81.34239 -23.39309,120.03165 -6.90446,15.64679 -15.99496,32.72935 -21.44841,40.30515 l -3.86944,5.37529 -76.83844,-52.34593 c -0.0104,-1.22092 1.96407,-5.00213 4.38691,-8.40268 4.77775,-6.7058 16.95712,-32.53345 18.31884,-38.49363 l -64.29291,87.34707 c 0,1.44192 13.33663,-10.27322 23.62309,-20.75098 l 10.39663,-10.58996 76.07322,52.26662 c 1.1623,1.07439 -0.37761,3.05041 -16.13678,20.70702 -30.80019,38.3444 -100.90258,83.99505 -149.14625,83.35912 l -45.2835,70.81246 z m 85.19042,-2.84754 45.04502,-82.64214 -176.35295,-1.94492 46.76433,83.14945 z m -49.42977,-89.12098 -65.21682,-109.00646 67.30144,-48.40029 70.51581,40.94224 -60.82535,109.28515 c -4.57795,7.33094 -4.17667,7.7731 6.17512,6.80423 20.86504,-1.95285 41.87595,-7.99614 60.77878,-17.4816 14.95215,-7.50299 14.82521,-7.37031 13.32132,-13.9252 l -17.00705,-90.45433 87.47881,-8.4405 c 7.28084,0 7.5847,-0.13721 10.54763,-4.76316 3.84113,-5.99706 7.06223,-27.32009 7.06223,-46.75042 0,-22.49805 -7.08612,-52.42641 -17.6611,-74.59184 l -4.10973,-8.61413 -78.48919,137.08152 -72.41424,-41.91908 -1.15935,-98.93908 147.00388,-0.98837 c 4.87663,-3.03908 -23.97664,-35.77773 -46.79985,-53.10187 -11.61867,-8.81927 -32.08737,-20.2425 -37.77066,-21.07915 l -68.79787,79.662 -62.77296,-74.02911 c -4.69305,-6.07863 -4.69854,-6.0788 -16.51968,-0.5334 -17.17927,8.05895 -37.61265,22.93574 -50.63591,36.86612 -9.68606,10.36076 -18.42606,21.24957 -20.04518,24.97347 -0.61256,1.40883 -1.8036,3.53436 -2.64676,4.7234 -0.84317,1.18904 -1.08992,2.6087 -0.54834,3.15479 l 147.83217,0.46291 1.3711,99.54827 -67.28874,48.99854 -87.06083,-142.25973 c -1.28275,0 -10.6311,22.57202 -13.99982,33.80321 -3.02397,10.08178 -5.64502,21.1928 -5.42885,23.01368 0.0192,0.16172 -0.50608,2.16226 -1.16728,4.44561 -1.55325,5.36389 -1.57244,40.6078 -0.0264,48.71969 4.22756,22.18343 4.14088,21.89976 6.89597,22.56956 l 103.73539,15.15677 -18.22871,94.48759 c 16.87053,11.20496 58.33561,21.22504 86.60102,20.57897 z m 253.87027,-279.93322 -45.11823,-69.5274 -100.07289,1.53399 105.07565,154.23641 z m -368.49969,-65.17084 -93.9781,-4.26716 -43.32526,70.8989 43.11368,82.70484 z"
       id="path3105"
       inkscape:connector-curvature="0"
       sodipodi:nodetypes="ccsccccccccccccccccccccsscccsssssccsccsccccccccccccccccsscccssscccccscccsssccccccscsccccccccccccccc" />
  </g>
</svg>
