<?xml version="1.0" encoding="utf-8"?>
<!-- Generator: Adobe Illustrator 16.0.0, SVG Export Plug-In . SVG Version: 6.00 Build 0)  -->
<!DOCTYPE svg PUBLIC "-//W3C//DTD SVG 1.1//EN" "http://www.w3.org/Graphics/SVG/1.1/DTD/svg11.dtd">
<svg version="1.1"
	 id="svg2" xmlns:dc="http://purl.org/dc/elements/1.1/" xmlns:cc="http://creativecommons.org/ns#" xmlns:rdf="http://www.w3.org/1999/02/22-rdf-syntax-ns#" xmlns:svg="http://www.w3.org/2000/svg" xmlns:sodipodi="http://sodipodi.sourceforge.net/DTD/sodipodi-0.dtd" xmlns:inkscape="http://www.inkscape.org/namespaces/inkscape" sodipodi:docname="virtual.svg" inkscape:version="0.48.3.1 r9886"
	 xmlns="http://www.w3.org/2000/svg" xmlns:xlink="http://www.w3.org/1999/xlink" x="0px" y="0px" width="587px" height="619.121px"
	 viewBox="4.138 53.445 587 619.121" enable-background="new 4.138 53.445 587 619.121" xml:space="preserve">
<sodipodi:namedview  id="base" inkscape:current-layer="layer1" inkscape:document-units="px" bordercolor="#666666" borderopacity="1.0" showgrid="false" inkscape:cx="373.78559" inkscape:cy="674.79505" pagecolor="#ffffff" inkscape:zoom="0.7866496" inkscape:window-x="0" inkscape:window-height="681" inkscape:window-y="27" inkscape:window-maximized="1" inkscape:window-width="1366" inkscape:pageopacity="0.0" inkscape:pageshadow="2">
	</sodipodi:namedview>
<g id="layer1" inkscape:label="Capa 1" inkscape:groupmode="layer" opacity="0.4">
	
		<path id="path3105" inkscape:connector-curvature="0" sodipodi:nodetypes="ccsccccccccccccccccccccsscccsssssccsccsccccccccccccccccsscccssscccccscccsssccccccscsccccccccccccccc" d="
		M263.707,599.257c-26.717-3.234-44.309-10.129-65.642-17.68c-20.478-7.24-52.962-25.918-71.113-40.891
		c-15.433-12.729-40.368-38.289-40.368-41.379l73.139-54.105c16.233,19.438,27.749,29.342,44.361,37.605l-75.704-96.686
		c12.613,37.786,12.392,34.944,23.858,49.104l-74.06,53.879c-6.111-9.852-19.918-31.229-22.961-37.324
		c-35.891-71.944-40.92-129.091-15.944-212.667l3.356-12.388L8.234,158.063l79.403-1.029l15.55-16.814
		c53.372-54.703,131.941-85.718,173.491-85.034c12.293-1.051,15.836-0.998,16.602,0.25l1.549,92.963
		c-13.836,0.431-35.758,5.827-42.282,8.406l100.458-0.598c-20.104-5.916-36.369-7.094-47.492-7.928l-1.221-92.917
		c11.078-0.596,15.197-0.77,21.336-0.163c49.322,4.991,94.518,21.791,132.514,49.257c14.479,10.466,20.635,15.888,38.92,34.276
		l16.83,16.924l73.152,0.447l-32.898,70.822l4.814,14.891c4.309,13.327,6.232,21.49,11.26,47.79
		c0.803,4.192,1.791,17.338,2.199,29.214c1.426,41.592-6.322,81.342-23.395,120.031c-6.904,15.646-15.994,32.729-21.447,40.305
		l-3.869,5.375l-76.84-52.346c-0.01-1.221,1.965-5.002,4.387-8.402c4.779-6.704,16.957-32.533,18.32-38.493l-64.293,87.346
		c0,1.441,13.336-10.273,23.623-20.752l10.396-10.59l76.072,52.268c1.162,1.074-0.377,3.051-16.137,20.707
		c-30.799,38.344-100.902,83.994-149.146,83.359l-45.283,70.812L263.707,599.257z M348.897,596.41l45.045-82.643l-176.353-1.943
		l46.764,83.148L348.897,596.41z M299.468,507.289l-65.216-109.005l67.3-48.4l70.516,40.942l-60.824,109.284
		c-4.578,7.332-4.178,7.773,6.174,6.805c20.865-1.953,41.877-7.996,60.779-17.48c14.953-7.504,14.826-7.371,13.322-13.926
		l-17.008-90.454l87.479-8.44c7.281,0,7.586-0.138,10.549-4.764c3.84-5.997,7.062-27.319,7.062-46.75
		c0-22.498-7.088-52.426-17.662-74.592l-4.109-8.614l-78.49,137.082l-72.414-41.92l-1.158-98.938l147.004-0.989
		c4.877-3.039-23.977-35.777-46.801-53.102c-11.619-8.819-32.088-20.243-37.77-21.079l-68.799,79.662l-62.773-74.029
		c-4.693-6.079-4.698-6.079-16.52-0.534c-17.179,8.059-37.612,22.936-50.636,36.866c-9.686,10.361-18.426,21.25-20.045,24.974
		c-0.612,1.409-1.803,3.534-2.646,4.723c-0.843,1.189-1.09,2.609-0.548,3.155l147.832,0.463l1.371,99.549l-67.288,48.998
		l-87.062-142.26c-1.283,0-10.631,22.572-14,33.803c-3.024,10.082-5.645,21.193-5.429,23.014c0.019,0.161-0.506,2.162-1.167,4.445
		c-1.554,5.364-1.573,40.607-0.026,48.72c4.228,22.184,4.141,21.899,6.896,22.569l103.735,15.157l-18.229,94.487
		C229.738,497.916,271.203,507.935,299.468,507.289L299.468,507.289z M553.339,227.356l-45.119-69.527l-100.072,1.534L513.224,313.6
		L553.339,227.356z M184.838,162.186l-93.978-4.268l-43.325,70.899l43.114,82.705L184.838,162.186z"/>
</g>
</svg>
