<?xml version="1.0" encoding="utf-8"?>
<!-- Generator: Adobe Illustrator 16.0.0, SVG Export Plug-In . SVG Version: 6.00 Build 0)  -->
<!DOCTYPE svg PUBLIC "-//W3C//DTD SVG 1.1//EN" "http://www.w3.org/Graphics/SVG/1.1/DTD/svg11.dtd">
<svg version="1.1" id="Layer_1" xmlns="http://www.w3.org/2000/svg" xmlns:xlink="http://www.w3.org/1999/xlink" x="0px" y="0px"
	 width="128px" height="128px" viewBox="0 0 128 128" enable-background="new 0 0 128 128" xml:space="preserve">
<g id="g8952" transform="translate(377.7993,824.7109)" opacity="0.5">
	<path id="path8954" fill="#F2F2F2" d="M-307.1-817.67c0.677,0.411,1.355,0.839,1.973,1.339c1.694,1.281,3.197,3.343,4.434,5.069
		c-0.265-0.253-0.559-0.504-0.884-0.769c-0.618-0.558-1.325-1.147-2.164-1.708c-0.412-0.28-0.824-0.62-1.281-0.897
		c-0.486-0.265-0.973-0.53-1.473-0.812c-0.252-0.132-0.501-0.28-0.767-0.426c-0.265-0.104-0.545-0.222-0.824-0.325
		c-0.561-0.236-1.119-0.471-1.693-0.722c-1.208-0.307-2.416-0.793-3.697-0.956c-0.634-0.102-1.252-0.266-1.915-0.311l-2.047-0.117
		l-0.516-0.028c-0.074-0.015-0.31,0-0.457,0.014l-0.987,0.043c-0.663,0.046-1.325,0.046-1.958,0.193
		c-0.647,0.104-1.281,0.193-1.915,0.293c-0.619,0.179-1.237,0.338-1.826,0.519c-0.619,0.13-1.179,0.381-1.739,0.585
		c-0.559,0.221-1.133,0.4-1.635,0.664c-1.016,0.529-2.032,0.973-2.842,1.576c-0.84,0.544-1.62,1.059-2.239,1.593
		c-0.618,0.486-1.178,0.896-1.575,1.337c1.207-1.621,2.65-3.607,4.256-4.816c0.191-0.148,0.368-0.28,0.574-0.428
		c0.015-0.015,0.03-0.027,0.059-0.042c0.398-0.235,0.825-0.5,1.252-0.766c0.515-0.311,1.091-0.532,1.665-0.825
		c0.574-0.265,1.163-0.529,1.796-0.722c0.634-0.193,1.282-0.397,1.93-0.605c0.663-0.118,1.34-0.251,2.018-0.381
		c0.678-0.162,1.384-0.162,2.091-0.223l1.046-0.057c0.206-0.014,0.31-0.045,0.574-0.031l0.515,0.031l2.048,0.133
		c0.677,0.071,1.398,0.25,2.091,0.368c1.414,0.19,2.651,0.779,3.918,1.147c0.722,0.368,1.458,0.679,2.136,1.032
		C-307.129-817.685-307.116-817.685-307.1-817.67 M-308.985-794.977c-0.752-0.882-1.768-1.458-3.064-1.737
		c0.354-0.162,0.604-0.264,0.752-0.339c0.132-0.072,0.383-0.236,0.736-0.516c0.811-0.604,1.311-1.473,1.473-2.59
		c0.059-0.326,0.088-0.663,0.088-1.016c0-0.444-0.043-0.855-0.146-1.27c-0.191-0.823-0.59-1.605-1.209-2.309
		c0-0.018-0.014-0.033-0.028-0.048c-0.516-0.558-1.281-1.014-2.298-1.354c-0.545-0.175-1.163-0.308-1.826-0.396v-2.756h-2.253v2.651
		h-2.475v-2.651h-2.252v2.651h-6.673v1.903v2.001h2.092c0.368,0,0.825,0.043,1.179,0.308c0.309,0.236,0.53,0.65,0.53,1.355v0.93
		v8.628c0,0.415-0.074,0.737-0.192,0.958h-13.211h-1.444c-0.117-0.868-0.176-1.765-0.176-2.666c0-0.926,0.059-1.841,0.191-2.739
		c0.177-1.444,0.5-2.84,0.958-4.181c0.264-0.781,0.589-1.549,0.942-2.285c0.383-0.793,0.81-1.572,1.296-2.309
		c3.8-5.939,10.457-9.871,17.998-9.871c7.555,0,14.212,3.932,18.012,9.871c0.472,0.737,0.898,1.516,1.281,2.309
		c0.354,0.736,0.678,1.504,0.942,2.285c0.457,1.341,0.782,2.737,0.958,4.181c0.132,0.897,0.191,1.812,0.191,2.739
		c0,0.901-0.06,1.798-0.177,2.666h-1.443h-9.706c0.06-0.368,0.104-0.736,0.104-1.132
		C-307.836-793.003-308.22-794.093-308.985-794.977 M-319.751-802.444v-0.308h2.224c1.119,0,1.974,0.104,2.548,0.308
		c0.132,0.046,0.25,0.088,0.353,0.149c0.574,0.28,0.868,0.884,0.868,1.81c0,0.118,0,0.221-0.014,0.326
		c-0.073,0.736-0.368,1.222-0.928,1.458c-0.618,0.278-1.576,0.426-2.842,0.426h-2.209v-1.884V-802.444z M-319.751-790.573v-4.063
		h2.739c1.532,0,2.651,0.145,3.357,0.457c0.707,0.308,1.047,0.94,1.047,1.897c0,0.785-0.221,1.356-0.663,1.709H-319.751z
		 M-261.384-761.04v2.164c-0.014,0.015-0.043,0.015-0.06,0.03c-0.824,0.397-1.914,0.941-3.739,0.941v-6.761h0.19
		C-262.959-764.666-261.384-763.075-261.384-761.04 M-279.765-800.159c5.494,0,9.972,4.492,9.972,9.969v3.597
		c-2.607-2.446-6.098-3.98-9.972-3.98h-12.371c0.089-0.881,0.132-1.765,0.132-2.666c0-0.926-0.043-1.841-0.147-2.739
		c0.104-0.897,0.147-1.827,0.147-2.753c0-0.471-0.015-0.958-0.029-1.428H-279.765z M-356.233-800.159h12.284
		c-0.015,0.471-0.03,0.957-0.03,1.428c0,0.926,0.043,1.855,0.147,2.753c-0.104,0.897-0.147,1.812-0.147,2.739
		c0,0.901,0.043,1.785,0.132,2.666h-12.386c-5.478,0-7.967-2.062-9.175-3.535C-363.862-797.657-360.328-800.159-356.233-800.159
		 M-269.793-715.134v3.564c0,5.495-4.478,9.97-9.972,9.97h-76.468c-3.357,0-6.318-1.664-8.114-4.211
		c0.633-0.061,1.177-0.514,1.339-1.165c0.177-0.822-0.338-1.647-1.163-1.841c-0.618-0.133-1.222-0.293-1.752-0.426
		c-0.192-0.751-0.28-1.533-0.28-2.327v-3.564v-3.507v-60.705c0.383,0.117,0.81,0.217,1.281,0.292
		c0.088,0.014,0.177,0.028,0.266,0.028c0.736,0,1.384-0.528,1.517-1.265c0.132-0.839-0.412-1.632-1.252-1.783
		c-0.736-0.132-1.34-0.322-1.811-0.515v-6.053c2.121,1.428,5.287,2.681,9.97,2.681h13.3h2.312c0.06,0.086,0.104,0.175,0.177,0.265
		c-0.044-0.09-0.074-0.179-0.089-0.265h2.416h0.177h2.798h6.981h13.653h13.652h2.799h0.177h2.416
		c-0.03,0.132-0.074,0.265-0.133,0.398c0.088-0.133,0.162-0.266,0.235-0.398h2.312h11.813h1.472c5.494,0,9.972,4.477,9.972,9.972
		v6.891v2.299v2.299v6.595h-2.932h-24.183c-1.384,0-2.696,0.34-3.845,0.929c-0.868,0.44-1.635,1.029-2.298,1.738
		c-1.428,1.501-2.298,3.535-2.298,5.772v1.785v10.04c0,4.64,3.786,8.427,8.44,8.427h24.183h2.932v10.573V-715.134z
		 M-261.384-737.641c0,2.093-1.694,3.815-3.799,3.833h-0.03h-2.283h-0.78h-1.517h-2.932h-1.09h-3.078h-20.015
		c-2.121,0-3.845-1.722-3.845-3.833v-2.531v-2.74v-6.554c0-2.12,1.724-3.843,3.845-3.843h20.015h3.078h1.09h2.932h1.517h0.78h1.179
		h1.104h0.03c1.562,0,2.812-0.263,3.799-0.589v11.004v2.722V-737.641z M-264.993-769.26h-0.19v-6.73v-14.2
		c0-8.011-6.54-14.562-14.582-14.562h-12.96c-2.71-11.432-13.02-19.958-25.274-19.958c-12.253,0-22.549,8.526-25.258,19.958h-12.976
		c-5.831,0-10.869,3.444-13.196,8.407c-0.884,1.87-1.37,3.947-1.37,6.156v64.436v14.185c0,8.04,6.525,14.581,14.566,14.581h76.468
		c3.668,0,7.04-1.371,9.617-3.624l0.015-0.014c1.65-1.46,2.946-3.257,3.815-5.303c0.736-1.737,1.135-3.64,1.135-5.641v-14.185v-3.46
		c4.64-0.014,8.409-3.801,8.409-8.427v-10.04v-7.925v-5.435C-256.774-765.577-260.456-769.26-264.993-769.26"/>
</g>
<g id="g8956" transform="translate(348.8794,800.4209)" opacity="0.5">
	<path id="path8958" fill="#F2F2F2" d="M-320.773-757.606h-7.498c-0.838,0-1.531,0.676-1.531,1.531c0,0.838,0.693,1.532,1.531,1.532
		h7.498c0.853,0,1.531-0.694,1.531-1.532C-319.242-756.93-319.92-757.606-320.773-757.606"/>
</g>
<g id="g8960" transform="translate(369.229,800.4209)" opacity="0.5">
	<path id="path8962" fill="#F2F2F2" d="M-311.152-757.606h-7.496c-0.854,0-1.532,0.676-1.532,1.531c0,0.032,0,0.074,0.015,0.103
		c0.044,0.797,0.693,1.43,1.517,1.43h1.399h6.097c0.84,0,1.532-0.694,1.532-1.532C-309.621-756.93-310.312-757.606-311.152-757.606"
		/>
</g>
<g id="g8964" transform="translate(394.6694,798.3408)" opacity="0.5">
	<path id="path8966" fill="#F2F2F2" d="M-299.124-752.463h0.765c1.723,0,3.285,0.958,4.096,2.503
		c0.264,0.53,0.795,0.826,1.354,0.826c0.235,0,0.486-0.043,0.707-0.162c0.751-0.4,1.047-1.326,0.662-2.062
		c-1.324-2.577-3.947-4.167-6.819-4.167h-0.765c-0.855,0-1.531,0.676-1.531,1.531C-300.655-753.157-299.979-752.463-299.124-752.463
		"/>
</g>
<g id="g8968" transform="translate(348.769,750.4307)" opacity="0.5">
	<path id="path8970" fill="#F2F2F2" d="M-320.827-633.99h-7.496c-0.839,0-1.532,0.677-1.532,1.53c0,0.841,0.693,1.534,1.532,1.534
		h7.496c0.855,0,1.533-0.693,1.533-1.534C-319.294-633.314-319.971-633.99-320.827-633.99"/>
</g>
<g id="g8972" transform="translate(379.2896,750.4307)" opacity="0.5">
	<path id="path8974" fill="#F2F2F2" d="M-306.395-633.99h-7.498c-0.838,0-1.531,0.677-1.531,1.53c0,0.841,0.693,1.534,1.531,1.534
		h7.498c0.854,0,1.531-0.693,1.531-1.534C-304.864-633.314-305.542-633.99-306.395-633.99"/>
</g>
<g id="g8976" transform="translate(389.4692,750.4307)" opacity="0.5">
	<path id="path8978" fill="#F2F2F2" d="M-301.582-633.99h-7.498c-0.854,0-1.531,0.677-1.531,1.53c0,0.841,0.678,1.534,1.531,1.534
		h7.498c0.853,0,1.53-0.693,1.53-1.534C-300.051-633.314-300.729-633.99-301.582-633.99"/>
</g>
<g id="g8980" transform="translate(399.3394,752.4912)" opacity="0.5">
	<path id="path8982" fill="#F2F2F2" d="M-296.916-639.084c-0.736-0.398-1.665-0.135-2.076,0.617
		c-0.811,1.487-2.356,2.417-4.037,2.417h-0.913c-0.854,0-1.53,0.676-1.53,1.53c0,0.84,0.676,1.533,1.53,1.533h0.913
		c2.799,0,5.377-1.533,6.732-4.008C-295.885-637.745-296.165-638.674-296.916-639.084"/>
</g>
<g id="g8984" transform="translate(369.1196,750.4307)" opacity="0.5">
	<path id="path8986" fill="#F2F2F2" d="M-311.204-633.99h-7.497c-0.839,0-1.532,0.677-1.532,1.53c0,0.841,0.692,1.534,1.532,1.534
		h7.497c0.855,0,1.531-0.693,1.531-1.534C-309.673-633.314-310.349-633.99-311.204-633.99"/>
</g>
<g id="g8988" transform="translate(358.9497,750.4307)" opacity="0.5">
	<path id="path8990" fill="#F2F2F2" d="M-316.012-633.99h-7.498c-0.853,0-1.532,0.677-1.532,1.53c0,0.841,0.679,1.534,1.532,1.534
		h7.498c0.838,0,1.532-0.693,1.532-1.534C-314.48-633.314-315.174-633.99-316.012-633.99"/>
</g>
<g id="g8992" transform="translate(398.3091,792.1104)" opacity="0.5">
	<path id="path8994" fill="#F2F2F2" d="M-297.403-737.056v0.809v2.298v2.299v2.074c0,0.84,0.694,1.534,1.532,1.534
		c0.854,0,1.546-0.694,1.546-1.534v-2.177v-2.314v-2.283v-0.705c0-0.854-0.692-1.548-1.546-1.548
		C-296.709-738.604-297.403-737.91-297.403-737.056"/>
</g>
<g id="g8996" transform="translate(399.3491,762.6807)" opacity="0.5">
	<path id="path8998" fill="#F2F2F2" d="M-296.911-664.282c-0.838,0-1.532,0.677-1.532,1.53v7.483c0,0.367,0.133,0.707,0.369,0.971
		c0.266,0.341,0.693,0.562,1.163,0.562c0.854,0,1.546-0.694,1.546-1.532v-0.472v-7.012
		C-295.365-663.606-296.057-664.282-296.911-664.282"/>
</g>
<g id="g9000" transform="translate(374.3091,798.3408)" opacity="0.5">
	<path id="path9002" fill="#F2F2F2" d="M-308.751-752.463h2.076h4.994h0.427c0.795,0,1.442-0.618,1.517-1.385
		c0.015-0.044,0.015-0.101,0.015-0.147c0-0.855-0.692-1.531-1.531-1.531h-0.089h-7.408c-0.838,0-1.531,0.676-1.531,1.531
		C-310.282-753.157-309.588-752.463-308.751-752.463"/>
</g>
<g id="g9004" transform="translate(359.1089,800.4111)" opacity="0.5">
	<path id="path9006" fill="#F2F2F2" d="M-315.938-757.582l-0.014-0.014h-1.473h-1.665h-1.015h-2.577h-0.827
		c-0.854,0-1.531,0.676-1.531,1.529c0,0.841,0.678,1.534,1.531,1.534h2.592h2.814h2.076h0.014c0.267,0,0.532-0.073,0.736-0.206
		c0.473-0.251,0.781-0.751,0.781-1.328c0-0.071,0-0.145-0.014-0.202C-314.597-756.993-315.201-757.552-315.938-757.582"/>
</g>
<g id="g9008" transform="translate(384.479,798.3408)" opacity="0.5">
	<path id="path9010" fill="#F2F2F2" d="M-303.943-752.463h0.886h6.611c0.855,0,1.533-0.694,1.533-1.532
		c0-0.855-0.678-1.531-1.533-1.531h-4.845h-2.593h-0.06c-0.837,0-1.53,0.676-1.53,1.531c0,0.25,0.059,0.5,0.19,0.706
		C-305.03-752.801-304.53-752.463-303.943-752.463"/>
</g>
<g id="g9012" transform="translate(391.8696,774.3916)" opacity="0.5">
	<path id="path9014" fill="#F2F2F2" d="M-300.448-693.24c0,0.797-0.325,1.502-0.826,2.019c-0.515,0.529-1.251,0.854-2.046,0.854
		s-1.531-0.325-2.047-0.854c-0.503-0.517-0.824-1.222-0.824-2.019c0-0.104,0-0.19,0.014-0.294c0.147-1.458,1.37-2.577,2.857-2.577
		c1.488,0,2.71,1.119,2.855,2.577C-300.448-693.431-300.448-693.344-300.448-693.24 M-303.32-699.439c-3.328,0-6.055,2.62-6.2,5.905
		c-0.014,0.104-0.014,0.19-0.014,0.294c0,0.707,0.117,1.383,0.338,2.019c0.294,0.869,0.78,1.647,1.426,2.297
		c1.122,1.178,2.697,1.901,4.45,1.901c1.736,0,3.328-0.724,4.464-1.901c0.617-0.649,1.118-1.428,1.413-2.297
		c0.22-0.636,0.339-1.312,0.339-2.019c0-0.104,0-0.19-0.016-0.294C-297.266-696.819-300.006-699.439-303.32-699.439"/>
</g>
</svg>
