<?xml version="1.0" encoding="utf-8"?>
<!-- Generator: Adobe Illustrator 16.0.0, SVG Export Plug-In . SVG Version: 6.00 Build 0)  -->
<!DOCTYPE svg PUBLIC "-//W3C//DTD SVG 1.1//EN" "http://www.w3.org/Graphics/SVG/1.1/DTD/svg11.dtd">
<svg version="1.1" id="Layer_1" xmlns="http://www.w3.org/2000/svg" xmlns:xlink="http://www.w3.org/1999/xlink" x="0px" y="0px"
	 width="128px" height="128px" viewBox="0 0 128 128" enable-background="new 0 0 128 128" xml:space="preserve">
<g id="g8932" transform="translate(891.4009,221.832)" opacity="0.5">
	<path id="path8934" fill="#F2F2F2" d="M-768.649-143.002c0,2.344-1.916,4.275-4.275,4.295h-0.033h-0.578h-1.965h-0.412h-2.178
		h-5.002h-25.389c-2.377,0-4.311-1.933-4.311-4.295v-2.839v-3.071v-7.346c0-2.376,1.934-4.307,4.311-4.307h25.389h5.002h2.178h0.412
		h1.965h0.578h0.033c1.75,0,3.154-0.296,4.275-0.66v12.313v3.071V-143.002z M-768.649-169.231v2.424
		c-0.035,0-0.049,0.017-0.082,0.036c-0.908,0.444-2.146,1.054-4.193,1.054v-7.577h0.215
		C-770.43-173.294-768.649-171.512-768.649-169.231 M-874.977-213.077h85.71c6.156,0,11.176,5.036,11.176,11.174v4.031
		c-2.922-2.741-6.852-4.458-11.176-4.458h-85.71c-6.108,0-8.915-2.297-10.267-3.948
		C-883.544-210.272-879.582-213.077-874.977-213.077 M-778.09-113.781c0,6.158-5.02,11.175-11.176,11.175h-5.514h-80.197
		c-6.174,0-11.175-5.017-11.175-11.175v-3.996v-3.93v-78.461c2.377,1.601,5.926,3.005,11.175,3.005h80.13h5.58
		c6.156,0,11.176,5.017,11.176,11.176v7.726v2.575v2.577v7.392h-5.002h-25.389c-1.553,0-3.023,0.38-4.311,1.041
		c-0.973,0.494-1.832,1.154-2.574,1.949c-1.604,1.682-2.576,3.962-2.576,6.47v2v11.256c0,5.2,4.244,9.443,9.461,9.443h25.389h5.002
		v11.867v3.914V-113.781z M-772.709-178.444h-0.215v-7.543v-15.916c0-8.979-7.328-16.324-16.342-16.324h-85.71
		c-6.521,0-12.183,3.861-14.79,9.425c-0.991,2.095-1.536,4.422-1.536,6.899v72.222v15.899c0,9.011,7.329,16.344,16.326,16.344h85.71
		c8.996,0,16.342-7.333,16.342-16.344v-15.899v-3.878c5.201-0.016,9.426-4.259,9.426-9.443v-11.256v-8.882v-6.091
		C-763.499-174.317-767.625-178.444-772.709-178.444"/>
</g>
<g id="g8936" transform="translate(874.4312,225.8516)" opacity="0.5">
	<path id="path8938" fill="#F2F2F2" d="M-779.693-153.658c0,0.894-0.365,1.685-0.941,2.265c-0.578,0.592-1.402,0.957-2.293,0.957
		c-0.893,0-1.701-0.365-2.297-0.957c-0.559-0.58-0.924-1.371-0.924-2.265c0-0.115,0-0.212,0.018-0.327
		c0.164-1.636,1.551-2.89,3.203-2.89c1.666,0,3.053,1.254,3.217,2.89C-779.693-153.87-779.693-153.773-779.693-153.658
		 M-782.927-160.605c-3.715,0-6.77,2.937-6.934,6.62c-0.018,0.115-0.018,0.212-0.018,0.327c0,0.793,0.133,1.55,0.381,2.265
		c0.33,0.973,0.875,1.847,1.584,2.573c1.254,1.32,3.037,2.132,4.986,2.132c1.963,0,3.73-0.812,5-2.132
		c0.711-0.727,1.256-1.601,1.584-2.573c0.25-0.715,0.383-1.472,0.383-2.265c0-0.115,0-0.212-0.018-0.327
		C-776.144-157.669-779.197-160.605-782.927-160.605"/>
</g>
<g id="g8940" transform="translate(851.4712,215.752)" opacity="0.5">
	<path id="path8942" fill="#F2F2F2" d="M-794.635-126.886c-1.7,1.915-4.558,2.956-8.519,3.137v4.393h-3.714v-4.359h-4.06v4.359
		h-3.714v-4.359h-10.945v-6.42h3.434c1.139,0,2.79-0.232,2.79-2.74v-15.7c0-2.49-1.651-2.723-2.79-2.723h-3.434v-6.422h10.945
		v-4.355h3.714v4.355h4.06v-4.355h3.714v4.54c1.09,0.129,2.081,0.344,2.987,0.641c1.667,0.544,2.94,1.305,3.78,2.248
		c1.52,1.746,2.278,3.729,2.278,5.925c0,2.658-0.856,4.637-2.573,5.942c-0.596,0.445-0.992,0.727-1.221,0.843
		c-0.215,0.114-0.628,0.296-1.224,0.561c2.115,0.461,3.8,1.402,5.053,2.855c1.238,1.436,1.866,3.234,1.866,5.365
		C-792.208-130.78-793.019-128.701-794.635-126.886 M-790.029-142.304c0.975-1.863,1.47-4.013,1.47-6.42
		c0-3.566-1.238-6.803-3.714-9.639c-1.32-1.487-3.121-2.661-5.351-3.501v-5.747h-22.564v4.344h-10.946v17.498h6.241l-0.018,10.086
		h-6.223v17.499h10.946v4.357h22.564v-5.166c2.971-0.825,5.365-2.213,7.116-4.195c2.559-2.854,3.847-6.207,3.847-9.969
		c0-3.502-1.09-6.522-3.236-8.998C-789.93-142.203-789.981-142.254-790.029-142.304"/>
</g>
<g id="g8944" transform="translate(847.1509,222.0117)" opacity="0.5">
	<path id="path8946" fill="#F2F2F2" d="M-797.446-143.479c-1.156-0.494-3.004-0.758-5.53-0.758h-4.474v7.841h5.217
		c2.163,0,3.797-0.265,4.887-0.809c1.09-0.53,1.617-1.586,1.617-3.153C-795.73-141.926-796.291-142.981-797.446-143.479"/>
</g>
<g id="g8948" transform="translate(846.1206,226.502)" opacity="0.5">
	<path id="path8950" fill="#F2F2F2" d="M-798.117-155.382c1.024-0.46,1.537-1.434,1.537-2.953c0-1.503-0.479-2.493-1.421-2.989
		c-0.941-0.478-2.525-0.725-4.77-0.725h-3.648v7.345h3.614C-800.707-154.704-799.14-154.935-798.117-155.382"/>
</g>
</svg>
